<svg width="18" height="19" viewBox="0 0 18 19" fill="none" xmlns="http://www.w3.org/2000/svg">
<path d="M14.0435 5.88489H13.9345C12.3499 5.83188 11.1677 4.54219 11.1677 2.95216C11.1677 1.32679 12.4254 0.0106002 13.9597 0.0106002C15.494 0.0106002 16.7516 1.33563 16.7516 2.95216C16.7526 3.71596 16.4714 4.45018 15.9674 4.99926C15.4635 5.54835 14.7765 5.86915 14.0519 5.89372C14.0519 5.88489 14.0519 5.88489 14.0435 5.88489ZM13.9597 1.32679C13.1129 1.32679 12.4254 2.05114 12.4254 2.94333C12.4254 3.81784 13.0709 4.52452 13.901 4.55986C13.9094 4.55103 13.9764 4.55103 14.0519 4.55986C14.4489 4.53228 14.8202 4.34348 15.0877 4.03322C15.3553 3.72296 15.4981 3.31543 15.4861 2.89645C15.4742 2.47747 15.3084 2.07972 15.0237 1.78694C14.7389 1.49416 14.3575 1.3292 13.9597 1.32679ZM14.0511 12.3934C13.7241 12.3934 13.3971 12.3669 13.0701 12.3051C12.9886 12.2901 12.9106 12.2584 12.8407 12.2117C12.7709 12.1649 12.7104 12.1041 12.6629 12.0327C12.6154 11.9613 12.5818 11.8807 12.5639 11.7956C12.546 11.7104 12.5442 11.6224 12.5587 11.5366C12.5728 11.4507 12.603 11.3685 12.6473 11.2949C12.6917 11.2213 12.7494 11.1576 12.8172 11.1076C12.885 11.0575 12.9614 11.022 13.0422 11.0032C13.1231 10.9843 13.2066 10.9825 13.2881 10.9977C14.3193 11.1832 15.4093 10.9801 16.1387 10.4677C16.5328 10.1939 16.7424 9.84937 16.7424 9.50486C16.7424 9.16035 16.5244 8.82468 16.1387 8.55084C15.4093 8.0385 14.3026 7.83532 13.2629 8.02966C12.9192 8.10033 12.5922 7.85299 12.5335 7.49082C12.4748 7.12864 12.7012 6.78414 13.0449 6.7223C14.4116 6.46613 15.8285 6.73997 16.8346 7.44665C17.5724 7.96783 18 8.70984 18 9.50486C18 10.291 17.5808 11.0419 16.8346 11.5719C16.0716 12.1019 15.0823 12.3934 14.0511 12.3934ZM3.95733 5.88312H3.94057C3.21723 5.85926 2.53107 5.53989 2.02722 4.99256C1.52338 4.44523 1.24138 3.71287 1.24086 2.95039C1.24086 1.32503 2.49849 0 4.03279 0C5.5671 0 6.82472 1.32503 6.82472 2.94156C6.82472 4.54042 5.64255 5.83012 4.1334 5.88312L3.95733 5.22061L4.01602 5.88312H3.95733ZM4.04118 4.55809C4.09148 4.55809 4.1334 4.55809 4.18371 4.56693C4.9299 4.53159 5.58387 3.82491 5.58387 2.95039C5.58342 2.63454 5.49515 2.32574 5.32998 2.06215C5.16481 1.79856 4.92996 1.59173 4.65445 1.46721C4.37895 1.34268 4.07485 1.30592 3.77974 1.36147C3.48462 1.41702 3.21141 1.56244 2.99387 1.77976C2.77633 1.99709 2.62398 2.2768 2.55565 2.58434C2.48731 2.89188 2.50599 3.21377 2.60937 3.51025C2.71275 3.80673 2.8963 4.06481 3.13735 4.2526C3.37839 4.44039 3.66638 4.54967 3.96572 4.56693C3.9741 4.55809 4.00764 4.55809 4.04118 4.55809ZM3.94895 12.3934C2.9177 12.3934 1.92836 12.1019 1.1654 11.5719C0.427593 11.0507 0 10.2999 0 9.50486C0 8.71868 0.427593 7.96783 1.1654 7.44665C2.1715 6.73997 3.58843 6.46613 4.95505 6.7223C5.2988 6.78414 5.52518 7.12864 5.46649 7.49082C5.4078 7.85299 5.08081 8.10033 4.73706 8.02966C3.69742 7.83532 2.5991 8.0385 1.86129 8.55084C1.46723 8.82468 1.25763 9.16035 1.25763 9.50486C1.25763 9.84937 1.47562 10.1939 1.86129 10.4677C2.59071 10.9801 3.68066 11.1832 4.71191 10.9977C5.05566 10.9359 5.38264 11.1832 5.44133 11.5366C5.50002 11.8987 5.27365 12.2432 4.9299 12.3051C4.60292 12.3669 4.27593 12.3934 3.94895 12.3934ZM9.013 12.4818H8.904C7.31939 12.4288 6.13722 11.1391 6.13722 9.54903C6.13722 7.92366 7.39485 6.60747 8.92915 6.60747C10.4635 6.60747 11.7211 7.93249 11.7211 9.54903C11.7221 10.3128 11.4409 11.047 10.9369 11.5961C10.433 12.1452 9.74596 12.466 9.02138 12.4906C9.02138 12.4818 9.02138 12.4818 9.013 12.4818ZM8.92915 7.92366C8.08235 7.92366 7.39485 8.64801 7.39485 9.54019C7.39485 10.4147 8.04043 11.1214 8.87046 11.1567C8.87885 11.1479 8.94592 11.1479 9.02138 11.1567C9.83465 11.1126 10.4635 10.4059 10.4718 9.54019C10.4718 8.65684 9.78434 7.92366 8.92915 7.92366ZM9.01383 19C8.00773 19 7.00163 18.7262 6.2219 18.1696C5.48409 17.6485 5.0565 16.9065 5.0565 16.1114C5.0565 15.3253 5.47571 14.5656 6.2219 14.0444C7.78974 12.949 10.2463 12.949 11.8058 14.0444C12.5436 14.5656 12.9712 15.3076 12.9712 16.1026C12.9712 16.8888 12.552 17.6485 11.8058 18.1696C11.026 18.7173 10.0199 19 9.01383 19ZM6.91779 15.1574C6.52373 15.4313 6.31413 15.7758 6.31413 16.1203C6.31413 16.4648 6.53212 16.8005 6.91779 17.0743C8.04965 17.8781 9.96963 17.8781 11.1015 17.0743C11.4956 16.8005 11.7052 16.4559 11.7052 16.1114C11.7052 15.7669 11.4872 15.4313 11.1015 15.1574C9.97802 14.3536 8.05804 14.3624 6.91779 15.1574Z" fill="white"/>
</svg>
