<svg width="16" height="19" viewBox="0 0 16 19" fill="none" xmlns="http://www.w3.org/2000/svg">
<mask id="path-1-inside-1_941_37133" fill="white">
<path d="M15.291 4.35657L11.477 0.681945C11.0245 0.243838 10.4089 -0.0017954 9.76727 9.88098e-06H3.34878C2.46068 9.88098e-06 1.60881 0.339852 0.980913 0.944978C0.352858 1.55009 0 2.37065 0 3.22647V15.7735C0 16.6294 0.352882 17.45 0.980913 18.055C1.60881 18.6601 2.46064 19 3.34878 19H12.6512C13.5393 19 14.3912 18.6602 15.0191 18.055C15.6471 17.4499 16 16.6294 16 15.7735V6.00468C16.0019 5.38608 15.7463 4.79257 15.291 4.35657ZM14.8836 15.7736C14.8836 16.3441 14.6483 16.8913 14.2297 17.2946C13.8109 17.698 13.2431 17.9246 12.6511 17.9246H3.34862C2.75652 17.9246 2.18875 17.698 1.76999 17.2946C1.35139 16.8913 1.1161 16.3441 1.1161 15.7736V3.22654C1.1161 2.65608 1.3514 2.10888 1.76999 1.70558C2.18875 1.30212 2.75652 1.07557 3.34862 1.07557H9.76711C10.1125 1.07557 10.4439 1.20761 10.6881 1.44302L14.502 5.11765C14.7453 5.35366 14.8823 5.67218 14.8834 6.00485L14.8836 15.7736ZM4.79258 8.74993V10.2422H4.03636C3.72801 10.2422 3.47823 10.4831 3.47823 10.78C3.47823 11.0769 3.72801 11.3177 4.03636 11.3177H4.79258V11.799C4.79258 12.096 5.04252 12.3368 5.35071 12.3368C5.6589 12.3368 5.90884 12.096 5.90884 11.799V11.315C6.5727 11.3007 7.1799 10.9515 7.50757 10.395C7.83538 9.83863 7.83538 9.15712 7.50757 8.60078C7.17991 8.04445 6.57274 7.695 5.90884 7.68075V6.18409H6.70601C7.0142 6.18409 7.26414 5.94328 7.26414 5.64635C7.26414 5.34927 7.0142 5.10861 6.70601 5.10861H5.90884V4.62729C5.90884 4.33036 5.6589 4.08954 5.35071 4.08954C5.04252 4.08954 4.79258 4.33036 4.79258 4.62729V5.10861C4.12809 5.12271 3.52028 5.47245 3.19214 6.02941C2.86418 6.58636 2.86418 7.2686 3.19214 7.82555C3.52027 8.3825 4.12809 8.73222 4.79258 8.74636V8.74993ZM5.90884 8.75713C6.18339 8.75713 6.43707 8.89832 6.57425 9.12728C6.71145 9.35639 6.71145 9.63848 6.57425 9.86756C6.43706 10.0967 6.18337 10.2377 5.90884 10.2377V8.75713ZM4.79258 6.18411V7.67266C4.51741 7.67266 4.26312 7.53132 4.12562 7.30161C3.98795 7.07205 3.98795 6.78922 4.12562 6.55952C4.26312 6.32996 4.51743 6.18863 4.79258 6.18863V6.18411ZM9.2345 9.81476C9.2345 9.51768 9.48429 9.27702 9.79263 9.27702H11.9144C12.2226 9.27702 12.4726 9.51768 12.4726 9.81476C12.4726 10.1117 12.2226 10.3525 11.9144 10.3525H9.79263C9.48585 10.3525 9.23653 10.1139 9.2345 9.81837V9.81476ZM9.2345 6.60359C9.2345 6.30666 9.48429 6.0657 9.79263 6.0657H11.9144C12.2226 6.0657 12.4726 6.30651 12.4726 6.60344C12.4726 6.90052 12.2226 7.14118 11.9144 7.14118H9.79263C9.48585 7.14118 9.23653 6.90262 9.2345 6.60705V6.60359ZM12.8298 14.3686C12.8298 14.6657 12.5799 14.9062 12.2717 14.9062H3.72831C3.42012 14.9062 3.17018 14.6655 3.17018 14.3684C3.17018 14.0715 3.42012 13.8307 3.72831 13.8307H12.2725C12.421 13.831 12.5635 13.8883 12.6682 13.9902C12.7727 14.0919 12.8309 14.2297 12.8297 14.3729L12.8298 14.3686Z"/>
</mask>
<path d="M15.291 4.35657L11.477 0.681945C11.0245 0.243838 10.4089 -0.0017954 9.76727 9.88098e-06H3.34878C2.46068 9.88098e-06 1.60881 0.339852 0.980913 0.944978C0.352858 1.55009 0 2.37065 0 3.22647V15.7735C0 16.6294 0.352882 17.45 0.980913 18.055C1.60881 18.6601 2.46064 19 3.34878 19H12.6512C13.5393 19 14.3912 18.6602 15.0191 18.055C15.6471 17.4499 16 16.6294 16 15.7735V6.00468C16.0019 5.38608 15.7463 4.79257 15.291 4.35657ZM14.8836 15.7736C14.8836 16.3441 14.6483 16.8913 14.2297 17.2946C13.8109 17.698 13.2431 17.9246 12.6511 17.9246H3.34862C2.75652 17.9246 2.18875 17.698 1.76999 17.2946C1.35139 16.8913 1.1161 16.3441 1.1161 15.7736V3.22654C1.1161 2.65608 1.3514 2.10888 1.76999 1.70558C2.18875 1.30212 2.75652 1.07557 3.34862 1.07557H9.76711C10.1125 1.07557 10.4439 1.20761 10.6881 1.44302L14.502 5.11765C14.7453 5.35366 14.8823 5.67218 14.8834 6.00485L14.8836 15.7736ZM4.79258 8.74993V10.2422H4.03636C3.72801 10.2422 3.47823 10.4831 3.47823 10.78C3.47823 11.0769 3.72801 11.3177 4.03636 11.3177H4.79258V11.799C4.79258 12.096 5.04252 12.3368 5.35071 12.3368C5.6589 12.3368 5.90884 12.096 5.90884 11.799V11.315C6.5727 11.3007 7.1799 10.9515 7.50757 10.395C7.83538 9.83863 7.83538 9.15712 7.50757 8.60078C7.17991 8.04445 6.57274 7.695 5.90884 7.68075V6.18409H6.70601C7.0142 6.18409 7.26414 5.94328 7.26414 5.64635C7.26414 5.34927 7.0142 5.10861 6.70601 5.10861H5.90884V4.62729C5.90884 4.33036 5.6589 4.08954 5.35071 4.08954C5.04252 4.08954 4.79258 4.33036 4.79258 4.62729V5.10861C4.12809 5.12271 3.52028 5.47245 3.19214 6.02941C2.86418 6.58636 2.86418 7.2686 3.19214 7.82555C3.52027 8.3825 4.12809 8.73222 4.79258 8.74636V8.74993ZM5.90884 8.75713C6.18339 8.75713 6.43707 8.89832 6.57425 9.12728C6.71145 9.35639 6.71145 9.63848 6.57425 9.86756C6.43706 10.0967 6.18337 10.2377 5.90884 10.2377V8.75713ZM4.79258 6.18411V7.67266C4.51741 7.67266 4.26312 7.53132 4.12562 7.30161C3.98795 7.07205 3.98795 6.78922 4.12562 6.55952C4.26312 6.32996 4.51743 6.18863 4.79258 6.18863V6.18411ZM9.2345 9.81476C9.2345 9.51768 9.48429 9.27702 9.79263 9.27702H11.9144C12.2226 9.27702 12.4726 9.51768 12.4726 9.81476C12.4726 10.1117 12.2226 10.3525 11.9144 10.3525H9.79263C9.48585 10.3525 9.23653 10.1139 9.2345 9.81837V9.81476ZM9.2345 6.60359C9.2345 6.30666 9.48429 6.0657 9.79263 6.0657H11.9144C12.2226 6.0657 12.4726 6.30651 12.4726 6.60344C12.4726 6.90052 12.2226 7.14118 11.9144 7.14118H9.79263C9.48585 7.14118 9.23653 6.90262 9.2345 6.60705V6.60359ZM12.8298 14.3686C12.8298 14.6657 12.5799 14.9062 12.2717 14.9062H3.72831C3.42012 14.9062 3.17018 14.6655 3.17018 14.3684C3.17018 14.0715 3.42012 13.8307 3.72831 13.8307H12.2725C12.421 13.831 12.5635 13.8883 12.6682 13.9902C12.7727 14.0919 12.8309 14.2297 12.8297 14.3729L12.8298 14.3686Z" fill="white"/>
<path d="M15.291 4.35657L2.80199 17.319L2.82207 17.3384L2.8422 17.3577L15.291 4.35657ZM11.477 0.681945L-1.04266 13.6148L-1.02732 13.6296L-1.01195 13.6444L11.477 0.681945ZM9.76727 9.88098e-06V18H9.7926L9.81792 17.9999L9.76727 9.88098e-06ZM0.980913 0.944978L13.4699 13.9074L13.4717 13.9057L0.980913 0.944978ZM0.980913 18.055L13.4715 5.09416L13.4697 5.09241L0.980913 18.055ZM15.0191 18.055L2.5301 5.09257L2.52833 5.09427L15.0191 18.055ZM16 6.00468L-1.99993 5.9503L-2.00001 5.97749V6.00468H16ZM14.8836 15.7736H32.8836V15.7734L14.8836 15.7736ZM14.2297 17.2946L26.7187 30.2571L26.7188 30.2569L14.2297 17.2946ZM1.76999 17.2946L-10.719 30.2571L-10.7187 30.2573L1.76999 17.2946ZM1.76999 1.70558L-10.719 -11.2569L-10.7192 -11.2567L1.76999 1.70558ZM10.6881 1.44302L-1.80499 14.4015L-1.80087 14.4055L10.6881 1.44302ZM14.502 5.11765L27.0363 -7.80101L27.0137 -7.82295L26.991 -7.84481L14.502 5.11765ZM14.8834 6.00485L32.8834 6.00459L32.8834 5.97527L32.8833 5.94596L14.8834 6.00485ZM4.79258 10.2422V28.2422H22.7926V10.2422H4.79258ZM4.79258 11.3177H22.7926V-6.68227H4.79258V11.3177ZM5.90884 11.315L5.52245 -6.68085L-12.0912 -6.30267V11.315H5.90884ZM7.50757 10.395L-8.00049 1.25711L-8.00344 1.26213L7.50757 10.395ZM7.50757 8.60078L-8.00238 17.7354L-8.00049 17.7386L7.50757 8.60078ZM5.90884 7.68075H-12.0912V25.2985L5.52257 25.6766L5.90884 7.68075ZM5.90884 6.18409V-11.8159H-12.0912V6.18409H5.90884ZM5.90884 5.10861H-12.0912V23.1086H5.90884V5.10861ZM4.79258 5.10861L5.17454 23.1046L22.7926 22.7306V5.10861H4.79258ZM3.19214 6.02941L-12.3164 -3.10765L-12.3184 -3.10416L3.19214 6.02941ZM3.19214 7.82555L-12.3184 16.9591L-12.3165 16.9623L3.19214 7.82555ZM4.79258 8.74636H22.7926V-8.87482L5.17539 -9.24957L4.79258 8.74636ZM5.90884 8.75713V-9.24287H-12.0912V8.75713H5.90884ZM6.57425 9.12728L22.0171 -0.120299L22.0149 -0.12396L6.57425 9.12728ZM6.57425 9.86756L-8.86807 0.61907L-8.86862 0.619982L6.57425 9.86756ZM5.90884 10.2377H-12.0912V28.2377H5.90884V10.2377ZM4.79258 7.67266V25.6727H22.7926V7.67266H4.79258ZM4.12562 7.30161L19.5702 -1.94309L19.5665 -1.94936L19.5627 -1.95562L4.12562 7.30161ZM4.12562 6.55952L19.565 15.8129L19.5673 15.8091L4.12562 6.55952ZM4.79258 6.18863V24.1886H22.7926V6.18863H4.79258ZM9.2345 9.81837H-8.7655V9.88028L-8.76507 9.94219L9.2345 9.81837ZM9.2345 6.60705H-8.7655V6.66896L-8.76507 6.73087L9.2345 6.60705ZM12.8298 14.3686H30.8298L-5.16135 13.8047L12.8298 14.3686ZM12.2725 13.8307L12.3088 -4.16926L12.2907 -4.1693H12.2725V13.8307ZM12.6682 13.9902L25.2241 1.09257L25.224 1.09247L12.6682 13.9902ZM12.8297 14.3729L-5.16964 14.2167L30.8208 14.9369L12.8297 14.3729ZM27.7799 -8.60589L23.966 -12.2805L-1.01195 13.6444L2.80199 17.319L27.7799 -8.60589ZM23.9967 -12.2509C20.1071 -16.0162 14.9543 -18.0147 9.71663 -17.9999L9.81792 17.9999C5.86351 18.0111 1.94179 16.5039 -1.04266 13.6148L23.9967 -12.2509ZM9.76727 -18H3.34878V18H9.76727V-18ZM3.34878 -18C-2.09972 -18 -7.45716 -15.9215 -11.5098 -12.0158L13.4717 13.9057C10.6748 16.6012 7.02107 18 3.34878 18V-18ZM-11.5081 -12.0175C-15.5808 -8.09348 -18 -2.62498 -18 3.22647H18C18 7.36628 16.2865 11.1937 13.4699 13.9074L-11.5081 -12.0175ZM-18 3.22647V15.7735H18V3.22647H-18ZM-18 15.7735C-18 21.6249 -15.5808 27.0936 -11.5079 31.0177L13.4697 5.09241C16.2866 7.80632 18 11.6338 18 15.7735H-18ZM-11.5097 31.0159C-7.45725 34.9213 -2.09998 37 3.34878 37V1C7.02125 1 10.6749 2.39896 13.4715 5.09416L-11.5097 31.0159ZM3.34878 37H12.6512V1H3.34878V37ZM12.6512 37C18.0997 37 23.4571 34.9215 27.5098 31.0158L2.52833 5.09427C5.32524 2.3988 8.97896 1 12.6512 1V37ZM27.5081 31.0175C31.5808 27.0935 34 21.625 34 15.7735H-2.00001C-2.00001 11.6338 -0.286577 7.80636 2.5301 5.09257L27.5081 31.0175ZM34 15.7735V6.00468H-2.00001V15.7735H34ZM33.9999 6.05905C34.017 0.40007 31.6729 -4.87847 27.7397 -8.64452L2.8422 17.3577C-0.180256 14.4636 -2.01329 10.3721 -1.99993 5.9503L33.9999 6.05905ZM-3.11643 15.7736C-3.11643 11.3488 -1.28571 7.24808 1.74052 4.3323L26.7188 30.2569C30.5822 26.5345 32.8836 21.3393 32.8836 15.7736H-3.11643ZM1.74071 4.33213C4.74504 1.43754 8.68145 -0.0754088 12.6511 -0.0754088V35.9246C17.8048 35.9246 22.8768 33.9586 26.7187 30.2571L1.74071 4.33213ZM12.6511 -0.0754088H3.34862V35.9246H12.6511V-0.0754088ZM3.34862 -0.0754088C7.31852 -0.0754088 11.2547 1.43772 14.2587 4.33189L-10.7187 30.2573C-6.87722 33.9584 -1.80547 35.9246 3.34862 35.9246V-0.0754088ZM14.259 4.33213C17.2855 7.24813 19.1161 11.3491 19.1161 15.7736H-16.8839C-16.8839 21.3391 -14.5827 26.5344 -10.719 30.2571L14.259 4.33213ZM19.1161 15.7736V3.22654H-16.8839V15.7736H19.1161ZM19.1161 3.22654C19.1161 7.65135 17.2854 11.7521 14.2592 14.6679L-10.7192 -11.2567C-14.5826 -7.53434 -16.8839 -2.3392 -16.8839 3.22654H19.1161ZM14.259 14.668C11.2547 17.5626 7.31826 19.0756 3.34862 19.0756V-16.9244C-1.80522 -16.9244 -6.87718 -14.9584 -10.719 -11.2569L14.259 14.668ZM3.34862 19.0756H9.76711V-16.9244H3.34862V19.0756ZM9.76711 19.0756C5.55841 19.0756 1.38104 17.4731 -1.80499 14.4015L23.1812 -11.5155C19.5068 -15.0579 14.6666 -16.9244 9.76711 -16.9244V19.0756ZM-1.80087 14.4055L2.01307 18.0801L26.991 -7.84481L23.1771 -11.5194L-1.80087 14.4055ZM1.96777 18.0363C-1.18959 14.9729 -3.10135 10.6872 -3.11647 6.06374L32.8833 5.94596C32.866 0.657139 30.6802 -4.26557 27.0363 -7.80101L1.96777 18.0363ZM-3.11657 6.00511L-3.11643 15.7739L32.8836 15.7734L32.8834 6.00459L-3.11657 6.00511ZM-13.2074 8.74993V10.2422H22.7926V8.74993H-13.2074ZM4.79258 -7.75776H4.03636V28.2422H4.79258V-7.75776ZM4.03636 -7.75776C-5.57924 -7.75776 -14.5218 -0.0803153 -14.5218 10.78H21.4782C21.4782 21.0464 13.0353 28.2422 4.03636 28.2422V-7.75776ZM-14.5218 10.78C-14.5218 21.6403 -5.57924 29.3177 4.03636 29.3177V-6.68227C13.0353 -6.68227 21.4782 0.513545 21.4782 10.78H-14.5218ZM4.03636 29.3177H4.79258V-6.68227H4.03636V29.3177ZM-13.2074 11.3177V11.799H22.7926V11.3177H-13.2074ZM-13.2074 11.799C-13.2074 22.6626 -4.26141 30.3368 5.35071 30.3368V-5.66321C14.3465 -5.66321 22.7926 1.52941 22.7926 11.799H-13.2074ZM5.35071 30.3368C14.9629 30.3368 23.9088 22.6625 23.9088 11.799H-12.0912C-12.0912 1.52943 -3.64506 -5.66321 5.35071 -5.66321V30.3368ZM23.9088 11.799V11.315H-12.0912V11.799H23.9088ZM6.29523 29.3109C12.9769 29.1674 19.4162 25.6459 23.0186 19.5278L-8.00344 1.26213C-5.05643 -3.74302 0.168527 -6.5659 5.52245 -6.68085L6.29523 29.3109ZM23.0156 19.5328C26.666 13.3376 26.666 5.65812 23.0156 -0.537064L-8.00049 17.7386C-10.9953 12.6561 -10.9953 6.33963 -8.00049 1.25711L23.0156 19.5328ZM23.0175 -0.533846C19.4166 -6.64795 12.9795 -10.1716 6.29511 -10.3151L5.52257 25.6766C0.165933 25.5616 -5.05678 22.7368 -8.00238 17.7354L23.0175 -0.533846ZM23.9088 7.68075V6.18409H-12.0912V7.68075H23.9088ZM5.90884 24.1841H6.70601V-11.8159H5.90884V24.1841ZM6.70601 24.1841C16.3181 24.1841 25.2641 16.5099 25.2641 5.64635H-10.7359C-10.7359 -4.62329 -2.28974 -11.8159 6.70601 -11.8159V24.1841ZM25.2641 5.64635C25.2641 -5.22048 16.3148 -12.8914 6.70601 -12.8914V23.1086C-2.28644 23.1086 -10.7359 15.919 -10.7359 5.64635H25.2641ZM6.70601 -12.8914H5.90884V23.1086H6.70601V-12.8914ZM23.9088 5.10861V4.62729H-12.0912V5.10861H23.9088ZM23.9088 4.62729C23.9088 -6.23618 14.9629 -13.9105 5.35071 -13.9105V22.0895C-3.64507 22.0895 -12.0912 14.8969 -12.0912 4.62729H23.9088ZM5.35071 -13.9105C-4.26142 -13.9105 -13.2074 -6.2362 -13.2074 4.62729H22.7926C22.7926 14.8969 14.3465 22.0895 5.35071 22.0895V-13.9105ZM-13.2074 4.62729V5.10861H22.7926V4.62729H-13.2074ZM4.41062 -12.8873C-2.27774 -12.7454 -8.7152 -9.21999 -12.3164 -3.10765L18.7007 15.1665C15.7558 20.1649 10.5339 22.9908 5.17454 23.1046L4.41062 -12.8873ZM-12.3184 -3.10416C-15.9656 3.08949 -15.9656 10.7655 -12.3184 16.9591L18.7027 -1.30802C21.694 3.77174 21.694 10.0832 18.7027 15.163L-12.3184 -3.10416ZM-12.3165 16.9623C-8.71498 23.0756 -2.2772 26.6 4.40978 26.7423L5.17539 -9.24957C10.5334 -9.1356 15.7555 -6.31057 18.7008 -1.31124L-12.3165 16.9623ZM-13.2074 8.74636V8.74993H22.7926V8.74636H-13.2074ZM5.90884 26.7571C0.0732995 26.7571 -5.64209 23.7601 -8.86643 18.3785L22.0149 -0.12396C18.5162 -5.96343 12.2935 -9.24287 5.90884 -9.24287V26.7571ZM-8.86862 18.3749C-12.1407 12.9107 -12.1413 6.08448 -8.86807 0.61907L22.0166 19.1161C25.5642 13.1925 25.5636 5.80209 22.0171 -0.120298L-8.86862 18.3749ZM-8.86862 0.619982C-5.64147 -4.76916 0.0785246 -7.76229 5.90884 -7.76229V28.2377C12.2882 28.2377 18.5156 24.9625 22.0171 19.1151L-8.86862 0.619982ZM23.9088 10.2377V8.75713H-12.0912V10.2377H23.9088ZM-13.2074 6.18411V7.67266H22.7926V6.18411H-13.2074ZM4.79258 -10.3273C10.6208 -10.3273 16.3424 -7.33554 19.5702 -1.94309L-11.319 16.5463C-7.81621 22.3982 -1.58593 25.6727 4.79258 25.6727V-10.3273ZM19.5627 -1.95562C22.8432 3.51489 22.8405 10.3477 19.565 15.8129L-11.3138 -2.69383C-14.8646 3.23077 -14.8673 10.6292 -11.3115 16.5588L19.5627 -1.95562ZM19.5673 15.8091C16.3392 21.1983 10.6194 24.1886 4.79258 24.1886V-11.8114C-1.58458 -11.8114 -7.81292 -8.53839 -11.3161 -2.69001L19.5673 15.8091ZM22.7926 6.18863V6.18411H-13.2074V6.18863H22.7926ZM27.2345 9.81476C27.2345 20.0843 18.7882 27.277 9.79263 27.277V-8.72298C0.180352 -8.72298 -8.7655 -1.04889 -8.7655 9.81476H27.2345ZM9.79263 27.277H11.9144V-8.72298H9.79263V27.277ZM11.9144 27.277C2.92202 27.277 -5.52743 20.0875 -5.52743 9.81476H30.4726C30.4726 -1.0521 21.5232 -8.72298 11.9144 -8.72298V27.277ZM-5.52743 9.81476C-5.52743 -0.454885 2.91869 -7.6475 11.9144 -7.6475V28.3525C21.5266 28.3525 30.4726 20.6783 30.4726 9.81476H-5.52743ZM11.9144 -7.6475H9.79263V28.3525H11.9144V-7.6475ZM9.79263 -7.6475C18.7454 -7.6475 27.1638 -0.52395 27.2341 9.69455L-8.76507 9.94219C-8.69072 20.7518 0.226272 28.3525 9.79263 28.3525V-7.6475ZM27.2345 9.81837V9.81476H-8.7655V9.81837H27.2345ZM27.2345 6.60359C27.2345 16.8636 18.7982 24.0657 9.79263 24.0657V-11.9343C0.170364 -11.9343 -8.7655 -4.25029 -8.7655 6.60359H27.2345ZM9.79263 24.0657H11.9144V-11.9343H9.79263V24.0657ZM11.9144 24.0657C2.91869 24.0657 -5.52743 16.8731 -5.52743 6.60344H30.4726C30.4726 -4.26007 21.5266 -11.9343 11.9144 -11.9343V24.0657ZM-5.52743 6.60344C-5.52743 -3.66926 2.92202 -10.8588 11.9144 -10.8588V25.1412C21.5232 25.1412 30.4726 17.4703 30.4726 6.60344H-5.52743ZM11.9144 -10.8588H9.79263V25.1412H11.9144V-10.8588ZM9.79263 -10.8588C18.7454 -10.8588 27.1638 -3.73525 27.2341 6.48323L-8.76507 6.73087C-8.69072 17.5405 0.226249 25.1412 9.79263 25.1412V-10.8588ZM27.2345 6.60705V6.60359H-8.7655V6.60705H27.2345ZM-5.17019 14.3686C-5.17019 4.08947 3.28593 -3.09381 12.2717 -3.09381V32.9062C21.8738 32.9062 30.8298 25.2419 30.8298 14.3686H-5.17019ZM12.2717 -3.09381H3.72831V32.9062H12.2717V-3.09381ZM3.72831 -3.09381C12.7207 -3.09381 21.1702 4.09575 21.1702 14.3684H-14.8298C-14.8298 25.2353 -5.88049 32.9062 3.72831 32.9062V-3.09381ZM21.1702 14.3684C21.1702 24.6381 12.7241 31.8307 3.72831 31.8307V-4.1693C-5.88381 -4.1693 -14.8298 3.50494 -14.8298 14.3684H21.1702ZM3.72831 31.8307H12.2725V-4.1693H3.72831V31.8307ZM12.2361 31.8307C7.8124 31.8217 3.43409 30.1216 0.112356 26.8879L25.224 1.09247C21.693 -2.34496 17.0297 -4.15973 12.3088 -4.16926L12.2361 31.8307ZM0.112257 26.8878C-3.22028 23.6436 -5.21203 19.0991 -5.16964 14.2167L30.829 14.5292C30.8739 9.36017 28.7656 4.54027 25.2241 1.09257L0.112257 26.8878ZM30.8208 14.9369L30.821 14.9325L-5.16135 13.8047L-5.16149 13.809L30.8208 14.9369Z" fill="white" mask="url(#path-1-inside-1_941_37133)"/>
</svg>
