<svg width="20" height="17" viewBox="0 0 20 17" fill="none" xmlns="http://www.w3.org/2000/svg">
<path fill-rule="evenodd" clip-rule="evenodd" d="M19.1575 6.70918L16.7325 4.28418C16.5709 4.12251 16.4092 4.04168 16.1667 4.04168H13.7417V0.808335C13.7417 0.323334 13.4184 0 12.9334 0H0.808335C0.323334 0 0 0.323334 0 0.808335V11.3167C0 11.8017 0.323334 12.125 0.808335 12.125H1.94C1.6975 12.5292 1.61667 12.9334 1.61667 13.3375C1.61667 14.8734 2.91001 16.1667 4.44584 16.1667C5.98168 16.1667 7.27502 14.8734 7.27502 13.3375C7.27502 12.9334 7.19419 12.5292 6.95168 12.125H12.3675C12.2059 12.5292 12.0442 12.9334 12.0442 13.3375C12.0442 14.8734 13.3375 16.1667 14.8734 16.1667C16.4092 16.1667 17.7025 14.8734 17.7025 13.3375C17.7025 12.9334 17.6217 12.5292 17.3792 12.125H18.5917C19.0767 12.125 19.4 11.8017 19.4 11.3167V7.27502C19.4 7.03252 19.3192 6.87085 19.1575 6.70918ZM1.6166 1.61671H12.125V4.85005V10.5084H1.6166V1.61671ZM4.44592 14.55C5.09258 14.55 5.65842 13.9842 5.65842 13.3375C5.65842 12.6909 5.09258 12.125 4.44592 12.125C3.79925 12.125 3.23341 12.6909 3.23341 13.3375C3.23341 13.9842 3.79925 14.55 4.44592 14.55ZM16.1666 13.3375C16.1666 13.9842 15.6008 14.55 14.9541 14.55C14.3075 14.55 13.7416 13.9842 13.7416 13.3375C13.7416 12.6909 14.3075 12.125 14.9541 12.125C15.6008 12.125 16.1666 12.6909 16.1666 13.3375ZM13.7416 10.5083H17.7833V7.59832L15.8433 5.65831H13.7416V10.5083Z" fill="white"/>
</svg>
