<svg width="788" height="579" viewBox="0 0 788 579" fill="none" xmlns="http://www.w3.org/2000/svg">
   <path opacity="0.0845424" d="M673.322 164.249C682.699 151.73 700.455 149.18 712.98 158.552C725.381 167.83 728.006 185.315 718.958 197.81L718.681 198.187L644.381 297.373C634.918 310.006 617.342 313.209 604.042 304.802L603.64 304.544L556.866 273.947L509.707 342.593C500.939 355.356 483.566 358.693 470.703 350.17L470.315 349.908C457.545 341.145 454.205 323.782 462.733 310.927L462.995 310.539L524.794 220.585C534.001 207.185 552.142 203.492 565.843 212.144L566.256 212.41L613.899 243.574L673.322 164.249Z" fill="#0147FF"/>
   <path opacity="0.0845424" d="M430.119 3.29424C432.497 -0.160162 437.233 -1.03872 440.698 1.33194C444.117 3.67139 445.02 8.30087 442.758 11.7421L442.666 11.8791L424.149 38.779C421.435 42.5698 416.182 43.4829 412.346 40.8606L412.21 40.7654L401.575 33.1946L390.05 51.4538C387.841 54.9536 383.236 56.0368 379.697 53.9185L379.558 53.8332C376.048 51.6305 374.962 47.0392 377.086 43.5109L377.172 43.3722L392.457 19.158C394.975 15.169 400.259 13.9705 404.26 16.4812L404.469 16.6168L404.674 16.7584L415.532 24.4883L430.119 3.29424Z" fill="#0147FF"/>
   <path opacity="0.070266" fill-rule="evenodd" clip-rule="evenodd" d="M632.405 129.308C633.785 129.308 634.905 128.189 634.905 126.808V108.831H652.894C654.274 108.831 655.394 107.712 655.394 106.331V97.6761C655.394 96.2954 654.274 95.1761 652.894 95.1761H634.905V77.0664C634.905 75.6857 633.785 74.5664 632.405 74.5664H623.609C622.228 74.5664 621.109 75.6857 621.109 77.0664V95.1761H603.12C601.739 95.1761 600.62 96.2954 600.62 97.6761V106.331C600.62 107.712 601.739 108.831 603.12 108.831H621.109V126.808C621.109 128.189 622.228 129.308 623.609 129.308H632.405Z" fill="#2D56BF"/>
   <path opacity="0.0739397" fill-rule="evenodd" clip-rule="evenodd" d="M91.604 20C142.195 20 183.208 60.9886 183.208 111.551C183.208 162.113 142.195 203.101 91.604 203.101C41.0125 203.101 0 162.113 0 111.551C0 60.9886 41.0125 20 91.604 20ZM91.604 65.3034C66.0475 65.3034 45.3298 86.0089 45.3298 111.551C45.3298 137.092 66.0475 157.798 91.604 157.798C117.16 157.798 137.878 137.092 137.878 111.551C137.878 86.0089 117.16 65.3034 91.604 65.3034Z" fill="#2D56BF"/>
   <g opacity="0.6">
      <path fill-rule="evenodd" clip-rule="evenodd" d="M60.5981 101C60.5981 92.1634 67.7616 85 76.5981 85H546.726C555.563 85 562.727 92.1634 562.727 101V305.224C562.727 314.061 555.563 321.224 546.727 321.224H76.5982C67.7616 321.224 60.5981 314.061 60.5981 305.224V101Z" fill="#E6ECFF"/>
      <path fill-rule="evenodd" clip-rule="evenodd" d="M68.1489 101C68.1489 92.1634 75.3124 85 84.1489 85H546.726C555.563 85 562.726 92.1634 562.726 101V305.224C562.726 314.061 555.563 321.224 546.726 321.224H84.149C75.3124 321.224 68.1489 314.061 68.1489 305.224V101Z" fill="#132453"/>
      <path fill-rule="evenodd" clip-rule="evenodd" d="M75.6997 102.559C75.6997 97.0362 80.1769 92.5591 85.6997 92.5591H545.176C550.698 92.5591 555.176 97.0362 555.176 102.559V303.665C555.176 309.188 550.698 313.665 545.176 313.665H85.6997C80.1769 313.665 75.6997 309.188 75.6997 303.665L75.6997 102.559Z" fill="#EEF3FB"/>
      <path fill-rule="evenodd" clip-rule="evenodd" d="M274.852 299.823C274.852 296.509 277.538 293.823 280.852 293.823H350.023C353.337 293.823 356.023 296.509 356.023 299.823V313.665H274.852V299.823Z" fill="#EEF3FB"/>
   </g>
   <g filter="url(#filter0_dd_154_22571)">
      <path fill-rule="evenodd" clip-rule="evenodd" d="M89.8569 107.397C89.8569 104.421 92.2696 102.008 95.2457 102.008H220.269C223.246 102.008 225.658 104.421 225.658 107.397V148.047C225.658 151.023 223.246 153.436 220.269 153.436H95.2457C92.2696 153.436 89.8569 151.023 89.8569 148.047V107.397Z" fill="white"/>
   </g>
   <path opacity="0.454078" fill-rule="evenodd" clip-rule="evenodd" d="M130.038 132.559C130.038 131.715 130.722 131.031 131.566 131.031H156.993C157.837 131.031 158.521 131.715 158.521 132.559V132.559C158.521 133.403 157.837 134.087 156.993 134.087H131.566C130.722 134.087 130.038 133.403 130.038 132.559V132.559Z" fill="#2D56BF"/>
   <path fill-rule="evenodd" clip-rule="evenodd" d="M130.038 123.903C130.038 123.059 130.722 122.375 131.566 122.375H146.821C147.664 122.375 148.348 123.059 148.348 123.903V123.903C148.348 124.747 147.664 125.431 146.821 125.431H131.566C130.722 125.431 130.038 124.747 130.038 123.903V123.903Z" fill="#0147FF"/>
   <path fill-rule="evenodd" clip-rule="evenodd" d="M204.813 120.284C206.983 117.429 211.054 116.876 213.905 119.049C214.561 119.548 215.116 120.169 215.54 120.876C215.758 121.241 215.64 121.714 215.276 121.933C214.911 122.151 214.439 122.033 214.221 121.668C213.897 121.128 213.474 120.655 212.973 120.274C210.843 118.651 207.819 119.022 206.141 121.085L206.037 121.216L203.653 124.353C199.928 129.254 193.625 131.414 187.694 129.848L187.44 129.779L185.521 129.237C185.398 129.202 185.273 129.171 185.148 129.143C181.64 128.369 178.169 130.541 177.31 134.011L177.27 134.182L176.874 135.98C176.734 136.617 176.462 137.217 176.077 137.741C174.551 139.817 171.634 140.262 169.56 138.735C169.218 138.483 169.145 138.001 169.396 137.659C169.648 137.316 170.129 137.243 170.471 137.495C171.861 138.518 173.816 138.22 174.838 136.829C175.064 136.521 175.231 136.175 175.333 135.808L175.372 135.649L175.768 133.851C176.736 129.451 181.084 126.67 185.479 127.639L185.71 127.694L185.939 127.755L187.858 128.297C193.172 129.799 198.858 127.946 202.273 123.622L202.429 123.421L204.813 120.284Z" fill="#0147FF"/>
   <path fill-rule="evenodd" clip-rule="evenodd" d="M197.883 119.353C199.453 115.857 203.558 114.296 207.05 115.869C207.752 116.184 208.396 116.615 208.957 117.142C210.276 118.384 211.497 120.347 212.643 123.035C212.809 123.426 212.628 123.878 212.237 124.045C211.846 124.212 211.395 124.03 211.228 123.639C210.159 121.13 209.044 119.338 207.903 118.264C207.467 117.854 206.966 117.519 206.42 117.273C203.751 116.072 200.624 117.22 199.354 119.838L199.286 119.984L198.791 121.086C198.676 121.343 198.543 121.591 198.395 121.83C196.567 124.766 192.708 125.663 189.775 123.834C189.426 123.616 189.043 123.458 188.642 123.366C186.69 122.919 184.746 124.102 184.231 126.022L184.198 126.157L183.342 129.899C183.084 131.026 182.536 132.067 181.754 132.917C179.313 135.571 175.215 135.785 172.514 133.434L172.37 133.305L168.884 130.092C168.571 129.804 168.551 129.317 168.839 129.004C169.108 128.712 169.549 128.675 169.861 128.905L169.926 128.959L173.412 132.173C175.485 134.083 178.714 133.95 180.622 131.874C181.177 131.271 181.578 130.543 181.793 129.754L181.842 129.555L182.698 125.813C183.345 122.985 186.16 121.217 188.985 121.865C189.482 121.979 189.959 122.165 190.401 122.416L190.589 122.527C192.801 123.907 195.711 123.23 197.089 121.016C197.164 120.896 197.233 120.772 197.297 120.646L197.388 120.455L197.883 119.353Z" fill="#A0B2E2"/>
   <ellipse opacity="0.9" cx="112.491" cy="128.231" rx="10.4267" ry="10.4383" fill="#2D56BF"/>
   <g filter="url(#filter1_dd_154_22571)">
      <path fill-rule="evenodd" clip-rule="evenodd" d="M89.8569 165.592C89.8569 162.83 92.0955 160.592 94.8569 160.592H253.806C256.568 160.592 258.806 162.83 258.806 165.592V298.271C258.806 301.033 256.568 303.271 253.806 303.271H94.8569C92.0955 303.271 89.8569 301.033 89.8569 298.271V165.592Z" fill="white"/>
   </g>
   <mask id="mask0_154_22571" style="mask-type:alpha" maskUnits="userSpaceOnUse" x="90" y="161" width="168" height="142">
      <path fill-rule="evenodd" clip-rule="evenodd" d="M90 166C90 163.239 92.2386 161 95 161H253C255.761 161 258 163.239 258 166V298C258 300.761 255.761 303 253 303H95C92.2386 303 90 300.761 90 298V166Z" fill="white"/>
   </mask>
   <g mask="url(#mask0_154_22571)">
      <g opacity="0.8" filter="url(#filter2_d_154_22571)">
         <path d="M112.509 270.2C112.509 270.2 132.594 264.426 141.45 252.639C150.306 240.853 153.292 229.428 168.524 229.428C183.755 229.428 185.708 246.926 202.173 246.926C218.639 246.926 219.54 224.612 225.012 215.752C230.485 206.892 239.929 206.892 239.929 206.892" stroke="#0147FF" stroke-width="4.004" stroke-linecap="round"/>
      </g>
      <path opacity="0.414737" fill-rule="evenodd" clip-rule="evenodd" d="M112 268.643C112 268.643 132.177 262.929 141.073 251.267C149.969 239.604 152.968 228.3 168.269 228.3C183.57 228.3 185.532 245.613 202.073 245.613C218.613 245.613 219.518 223.534 225.015 214.767C230.513 206 240 206 240 206V279.92C240 281.621 238.621 283 236.92 283H115.08C113.379 283 112 281.621 112 279.92V268.643Z" fill="#E6ECFF"/>
      <rect x="103.071" y="174.765" width="52.8556" height="5.66939" rx="2.83469" fill="#E6ECFF"/>
      <path opacity="0.8" fill-rule="evenodd" clip-rule="evenodd" d="M103.071 191.773C103.071 190.208 104.34 188.939 105.905 188.939H124.776C126.342 188.939 127.611 190.208 127.611 191.773V191.773C127.611 193.339 126.342 194.608 124.776 194.608H105.905C104.34 194.608 103.071 193.339 103.071 191.773V191.773Z" fill="#0147FF"/>
      <ellipse cx="226.243" cy="178.073" rx="3.30348" ry="3.30714" fill="#0147FF"/>
      <ellipse cx="235.682" cy="178.073" rx="3.30348" ry="3.30714" fill="#0147FF"/>
      <ellipse cx="245.12" cy="178.073" rx="3.30348" ry="3.30714" fill="#0147FF"/>
   </g>
   <g filter="url(#filter3_d_154_22571)">
      <path fill-rule="evenodd" clip-rule="evenodd" d="M285.234 122.721C285.234 118.588 288.585 115.237 292.718 115.237H517.931C522.064 115.237 525.415 118.588 525.415 122.721V273.237C525.415 277.371 522.064 280.721 517.931 280.721H292.718C288.585 280.721 285.234 277.371 285.234 273.237V122.721Z" fill="white"/>
   </g>
   <path fill-rule="evenodd" clip-rule="evenodd" d="M325.853 200.101V259.287H317.022V200.101H325.853Z" fill="#E6ECFF"/>
   <path fill-rule="evenodd" clip-rule="evenodd" d="M325.853 214.245V259.287H317.022V214.245H325.853Z" fill="#2D56BF" fill-opacity="0.5"/>
   <path fill-rule="evenodd" clip-rule="evenodd" d="M325.853 242.533V259.287H317.022V242.533H325.853Z" fill="#0147FF" fill-opacity="0.5"/>
   <path fill-rule="evenodd" clip-rule="evenodd" d="M347.045 185.957V259.287H338.215V185.957H347.045Z" fill="#E6ECFF"/>
   <path fill-rule="evenodd" clip-rule="evenodd" d="M347.045 207.173V259.287H338.215V207.173H347.045Z" fill="#2D56BF" fill-opacity="0.5"/>
   <path fill-rule="evenodd" clip-rule="evenodd" d="M347.045 242.533V259.287H338.215V242.533H347.045Z" fill="#0147FF" fill-opacity="0.5"/>
   <path fill-rule="evenodd" clip-rule="evenodd" d="M368.238 196.565V259.287H359.408V196.565H368.238Z" fill="#E6ECFF"/>
   <path fill-rule="evenodd" clip-rule="evenodd" d="M368.238 217.781V259.287H359.408V217.781H368.238Z" fill="#2D56BF" fill-opacity="0.5"/>
   <path fill-rule="evenodd" clip-rule="evenodd" d="M368.238 246.069V259.287H359.408V246.069H368.238Z" fill="#0147FF" fill-opacity="0.5"/>
   <path fill-rule="evenodd" clip-rule="evenodd" d="M389.43 178.885V259.287H380.6V178.885H389.43Z" fill="#E6ECFF"/>
   <path fill-rule="evenodd" clip-rule="evenodd" d="M389.43 200.101V259.287H380.6V200.101H389.43Z" fill="#2D56BF" fill-opacity="0.5"/>
   <path fill-rule="evenodd" clip-rule="evenodd" d="M389.43 228.389V259.287H380.6V228.389H389.43Z" fill="#0147FF" fill-opacity="0.5"/>
   <path fill-rule="evenodd" clip-rule="evenodd" d="M410.623 164.741V259.287H401.792V164.741H410.623Z" fill="#E6ECFF"/>
   <path fill-rule="evenodd" clip-rule="evenodd" d="M410.623 193.029V259.287H401.792V193.029H410.623Z" fill="#2D56BF" fill-opacity="0.5"/>
   <path fill-rule="evenodd" clip-rule="evenodd" d="M410.623 235.461V259.287H401.792V235.461H410.623Z" fill="#0147FF" fill-opacity="0.5"/>
   <path fill-rule="evenodd" clip-rule="evenodd" d="M431.815 185.957V259.287H422.985V185.957H431.815Z" fill="#E6ECFF"/>
   <path fill-rule="evenodd" clip-rule="evenodd" d="M431.815 207.173V259.287H422.985V207.173H431.815Z" fill="#2D56BF" fill-opacity="0.5"/>
   <path fill-rule="evenodd" clip-rule="evenodd" d="M431.815 239.704V259.287H422.985V239.704H431.815Z" fill="#0147FF" fill-opacity="0.5"/>
   <path fill-rule="evenodd" clip-rule="evenodd" d="M453.007 193.029V259.287H444.177V193.029H453.007Z" fill="#E6ECFF"/>
   <path fill-rule="evenodd" clip-rule="evenodd" d="M453.007 207.173V259.287H444.177V207.173H453.007Z" fill="#2D56BF" fill-opacity="0.5"/>
   <path fill-rule="evenodd" clip-rule="evenodd" d="M453.007 234.754V259.287H444.177V234.754H453.007Z" fill="#0147FF" fill-opacity="0.5"/>
   <path fill-rule="evenodd" clip-rule="evenodd" d="M474.2 178.885V259.287H465.37V178.885H474.2Z" fill="#E6ECFF"/>
   <path fill-rule="evenodd" clip-rule="evenodd" d="M474.2 207.173V259.287H465.37V207.173H474.2Z" fill="#2D56BF" fill-opacity="0.5"/>
   <path fill-rule="evenodd" clip-rule="evenodd" d="M474.2 241.825V259.287H465.37V241.825H474.2Z" fill="#0147FF" fill-opacity="0.5"/>
   <path fill-rule="evenodd" clip-rule="evenodd" d="M495.392 193.029V259.287H486.562V193.029H495.392Z" fill="#E6ECFF"/>
   <path fill-rule="evenodd" clip-rule="evenodd" d="M495.392 207.173V259.287H486.562V207.173H495.392Z" fill="#2D56BF" fill-opacity="0.5"/>
   <path fill-rule="evenodd" clip-rule="evenodd" d="M495.392 241.826V259.287H486.562V241.826H495.392Z" fill="#0147FF" fill-opacity="0.5"/>
   <path opacity="0.57573" fill-rule="evenodd" clip-rule="evenodd" d="M314.197 145.647C314.197 144.475 315.147 143.525 316.318 143.525H386.955C388.127 143.525 389.077 144.475 389.077 145.647V145.647C389.077 146.818 388.127 147.768 386.955 147.768H316.318C315.147 147.768 314.197 146.818 314.197 145.647V145.647Z" fill="#2D56BF"/>
   <rect x="314.197" y="131.502" width="39.5593" height="4.2432" rx="2.1216" fill="#0147FF"/>
   <path fill-rule="evenodd" clip-rule="evenodd" d="M583.271 475.641L595.806 574.679L589.234 574.591L576.699 476.568L583.271 475.641Z" fill="#292929"/>
   <path fill-rule="evenodd" clip-rule="evenodd" d="M498.457 491.209C492.742 491.209 488.11 486.576 488.11 480.862V480.862C488.11 475.147 492.742 470.515 498.457 470.515H540.787C546.509 470.515 551.291 466.162 551.827 460.465L558.621 388.226C559.157 382.529 563.939 378.176 569.661 378.176H597.73C604.188 378.176 609.28 383.674 608.785 390.113L601.804 480.97C601.36 486.747 596.543 491.209 590.748 491.209H498.457Z" fill="#292929"/>
   <path fill-rule="evenodd" clip-rule="evenodd" d="M488.112 480.773C488.169 480.774 488.226 480.775 488.283 480.775H580.328C586.122 480.775 590.939 476.315 591.384 470.539L598.36 379.998C598.407 379.393 598.404 378.797 598.356 378.212C598.058 378.188 597.756 378.176 597.452 378.176H569.505C563.785 378.176 559.003 382.528 558.466 388.223L551.676 460.206C551.139 465.901 546.357 470.253 540.637 470.253H498.43C492.73 470.253 488.11 474.873 488.11 480.572C488.11 480.64 488.111 480.707 488.112 480.773Z" fill="#292929"/>
   <path fill-rule="evenodd" clip-rule="evenodd" d="M569.287 361.12C582.649 358.006 583.529 339.655 573.37 333.289C583.847 311.314 559.619 289.496 543.023 302.952C532.143 298.292 523.101 316.475 533.225 330.597C528.98 354.846 537.619 361.114 553.193 361.38L569.287 361.12Z" fill="#422851"/>
   <path fill-rule="evenodd" clip-rule="evenodd" d="M569.121 356.737C569.121 356.737 562.62 355.21 562.395 344.553C562.169 333.897 562.328 330.259 562.328 330.259L548.009 330C548.009 330 547.853 341.877 547.851 346.173C547.845 357.711 539.81 356.737 539.81 356.737C539.81 356.737 541.48 366.093 554.454 366.823C564.584 367.393 569.121 356.737 569.121 356.737Z" fill="url(#paint0_linear_154_22571)"/>
   <path fill-rule="evenodd" clip-rule="evenodd" d="M565.665 324.937C572.053 324.69 571.011 334.046 564.376 334.033C564.376 334.033 560.522 347.323 547.142 347.323C536.275 347.323 535.569 331.833 535.47 328.743C535.364 325.448 535.351 314.624 535.351 314.624L565.914 314.61L565.665 324.937Z" fill="url(#paint1_linear_154_22571)"/>
   <path d="M549.721 338.395C549.721 338.395 546.534 341.095 542.843 338.567" stroke="#F77B7B" stroke-width="1.5" stroke-linecap="round"/>
   <path d="M547.617 341.522C546.626 341.979 545.671 342.013 544.819 341.556" stroke="#F49494" stroke-linecap="round"/>
   <path d="M565.014 329.969C564.948 328.468 565.406 327.276 566.936 327.037" stroke="#F77B7B" stroke-linecap="round"/>
   <path fill-rule="evenodd" clip-rule="evenodd" d="M566.676 323.782C566.676 323.782 563.175 328.482 562.466 328.507C561.757 328.532 561.508 322.394 561.508 322.394C557.214 322.066 546.345 319.9 543.681 314.855C541.817 319.307 538.256 321.284 535.916 320.904L535.472 330.361L534.38 311.349H567.532L566.676 323.782Z" fill="#422851"/>
   <path fill-rule="evenodd" clip-rule="evenodd" d="M503.701 544.665C503.701 544.665 509.431 556.245 504.733 559.894C500.029 563.544 487.602 570.383 487.602 570.383L520.524 568.313L513.206 543.058L503.701 544.665Z" fill="url(#paint2_linear_154_22571)"/>
   <path fill-rule="evenodd" clip-rule="evenodd" d="M517.34 555.685C515.715 555.875 517.45 561.348 513.932 561.765C510.421 562.18 508.715 556.995 504.731 558.639C500.747 560.283 486.217 568.781 485.645 572.256C485.066 575.73 490.479 576.752 497.903 575.967C505.328 575.183 506.696 572.54 512.269 573.605C517.836 574.668 522.005 572.973 521.822 568.903C521.638 564.834 518.964 555.496 517.34 555.685Z" fill="#4B4B4B"/>
   <path fill-rule="evenodd" clip-rule="evenodd" d="M502.914 559.482L503.694 560.653C504.018 561.138 503.859 561.796 503.35 562.08L493.394 567.639C493.103 567.802 492.751 567.809 492.454 567.658L490.884 566.861C493.278 565.126 495.236 563.822 497.4 562.542C499.061 561.559 500.9 560.545 502.914 559.482Z" fill="white" fill-opacity="0.540975"/>
   <path fill-rule="evenodd" clip-rule="evenodd" d="M553.295 442.605C543.328 443.05 487.854 455.327 477.775 457.412C467.696 459.498 459.176 470.784 466.861 483.852C475.493 498.521 497.765 540.183 503.173 549.574C505.849 554.223 519.352 551.616 516.18 543.814C510.267 529.27 507.522 492.733 492.447 479.411C492.447 479.411 543.142 488.239 565.04 478.127C580.954 470.777 577.354 441.529 553.295 442.605Z" fill="#132453"/>
   <path fill-rule="evenodd" clip-rule="evenodd" d="M482.674 383.634C482.674 383.634 482.786 375.52 479.95 371.279C477.113 367.039 477 362.535 474.853 362.682C472.706 362.829 474.832 373.299 474.832 373.299C474.832 373.299 472.108 372.258 470.151 370.941C468.194 369.624 462.26 363.131 460.873 364.281C458.522 366.242 462.309 377.301 464.372 379.512C466.441 381.723 477.746 388.996 477.746 388.996L482.674 383.634Z" fill="url(#paint3_linear_154_22571)"/>
   <path fill-rule="evenodd" clip-rule="evenodd" d="M543.924 378.772C539.288 389.532 530.798 409.297 527.299 415.194C522.913 422.579 515.997 425.833 507.899 420.354C499.39 414.596 475.961 392.14 475.274 387.053C474.593 381.966 480.328 375.863 485.517 379.023C490.705 382.183 512.266 400.135 512.266 400.135C512.266 400.135 520.967 377.818 527.967 364.89C534.029 353.705 550.982 362.415 543.924 378.772Z" fill="#132453"/>
   <path fill-rule="evenodd" clip-rule="evenodd" d="M512.176 400.147C512.176 400.147 509.839 408.078 509.292 407.619C508.746 407.159 509.71 398.074 509.71 398.074L512.176 400.147Z" fill="black" fill-opacity="0.302803"/>
   <path fill-rule="evenodd" clip-rule="evenodd" d="M590.26 365.808C590.26 365.808 579.087 403.241 578.756 410.326C578.425 417.413 587.895 438.24 586.282 443.504C582.565 455.668 535.106 460.906 533.293 444.542C532.447 436.91 534.207 430.061 532.179 421.068C530.159 412.075 522.037 398.712 526.644 386.149C531.25 373.585 530.016 361.962 533.311 359.765C536.606 357.568 544.308 355.235 544.308 355.235C548.053 360.749 560.698 360.669 566.731 354.846C566.731 354.846 581.72 357.755 590.26 365.808Z" fill="#132453"/>
   <path fill-rule="evenodd" clip-rule="evenodd" d="M580.248 371.871C572.8 383.696 572.823 404.286 568.823 406.983C564.823 409.679 549.255 407.033 549.255 409.168C549.255 411.304 570.769 430.874 567.237 440.23C565.388 445.129 565.889 449.512 568.742 453.378L569.673 453.175C578.15 451.258 584.965 447.816 586.283 443.504C587.895 438.24 577.333 417.413 577.664 410.326C577.945 404.312 586.826 376.429 589.503 368.139C587.323 364.29 584.239 365.534 580.248 371.871Z" fill="black" fill-opacity="0.199355"/>
   <path fill-rule="evenodd" clip-rule="evenodd" d="M567.548 403.245C567.548 403.245 558.137 394.911 555.256 393.944C552.375 392.976 535.502 391.815 535.609 394C535.73 396.341 544.792 396.207 545.731 397.359C546.67 398.51 546.884 406.382 550.433 407.266C553.976 408.15 564.596 409.674 564.596 409.674L567.548 403.245Z" fill="url(#paint4_linear_154_22571)"/>
   <path fill-rule="evenodd" clip-rule="evenodd" d="M592.585 367.959C602.5 381.96 610.965 403.287 614.215 411.602C617.464 419.916 614.186 432.458 599.898 429.996C585.635 427.54 562.943 414.197 560.432 410.304C557.921 406.412 561.735 399.33 566.539 400.257C570.989 401.114 593.063 410.506 593.063 410.506C593.063 410.506 578.862 385.32 575.394 378.569C569.602 367.293 583.851 355.623 592.585 367.959Z" fill="#132453"/>
   <path fill-rule="evenodd" clip-rule="evenodd" d="M592.838 410.333C592.838 410.333 600.276 414.031 599.369 412.48C598.461 410.929 589.999 405.482 589.999 405.482L592.838 410.333Z" fill="black" fill-opacity="0.302803"/>
   <path fill-rule="evenodd" clip-rule="evenodd" d="M228.366 540.615C228.366 540.615 228.217 550.158 234.073 553.548C239.93 556.938 249.003 563.237 249.003 563.237L214.487 564.407L215.471 540.529L228.366 540.615Z" fill="#F8CFCF"/>
   <path fill-rule="evenodd" clip-rule="evenodd" d="M213.282 551.131L212.721 566.612H220.738L221.287 564.618C221.287 564.618 224.306 564.494 226.05 565.355C227.894 566.267 228.141 566.708 228.141 566.708L253.571 566.762C253.571 566.762 254.825 561.758 247.074 558.139C239.322 554.519 233.678 549.382 232.606 548.856C231.526 548.326 229.347 548.027 227.813 549.272C226.278 550.516 225.065 553.787 221.588 553.89C217.113 554.022 214.542 548.513 213.282 551.131Z" fill="#4B4B4B"/>
   <path d="M235.015 550.535L232.378 553.085" stroke="white" stroke-width="2" stroke-linecap="round"/>
   <path d="M238.859 552.468L236.222 555.018" stroke="white" stroke-width="2" stroke-linecap="round"/>
   <path d="M242.703 554.401L240.066 556.951" stroke="white" stroke-width="2" stroke-linecap="round"/>
   <path fill-rule="evenodd" clip-rule="evenodd" d="M203.104 334.456C203.104 334.456 212.693 440.036 212.991 447.375C213.289 454.715 209.911 467.381 209.977 481.109C210.042 494.838 211.21 543.224 211.21 543.224L232.363 543.671C232.363 543.671 241.253 456.235 241.349 443.123C241.444 430.012 242.26 335.718 242.26 335.718L203.104 334.456Z" fill="#6E6B7B"/>
   <path opacity="0.283552" fill-rule="evenodd" clip-rule="evenodd" d="M218.351 450.662L218.374 450.923C218.692 455.399 215.913 470.124 210.035 495.1L209.977 481.109V481.109C209.912 467.626 213.169 455.167 213.003 447.773L212.991 447.375C212.89 444.902 211.735 431.271 210.246 414.285L210.941 416.773C215.019 431.509 217.489 442.805 218.351 450.662Z" fill="white" fill-opacity="0.192499"/>
   <path fill-rule="evenodd" clip-rule="evenodd" d="M177.335 539.27L173.255 563.982L188.294 563.907L188.769 538.882L177.335 539.27Z" fill="#F8CFCF"/>
   <path fill-rule="evenodd" clip-rule="evenodd" d="M175.498 550.006C174.155 550.297 173.181 551.465 173.136 552.839L173.007 556.735C170.873 559.103 169.868 565.957 169.768 566.675C169.762 566.718 169.758 566.758 169.762 566.802C170.048 570.156 192.041 570.108 194.017 566.946C194.099 566.814 194.105 566.659 194.08 566.505C193.859 565.162 192.637 558.361 190.274 556.513L190.26 552.655C190.255 551.301 189.344 550.119 188.037 549.768L185.566 549.105C183.368 545.899 180.372 546.012 177.804 549.506L175.498 550.006Z" fill="#4B4B4B"/>
   <path d="M178.658 552.177H184.746" stroke="white" stroke-width="2" stroke-linecap="round"/>
   <path d="M178.658 555.074H184.746" stroke="white" stroke-width="2" stroke-linecap="round"/>
   <path d="M179.626 557.971H183.778" stroke="white" stroke-width="2" stroke-linecap="round"/>
   <path fill-rule="evenodd" clip-rule="evenodd" d="M184.919 335.841C184.919 335.841 178.2 408.214 178.291 422.073C178.382 435.933 180.359 442.02 177.546 451.962C174.732 461.905 172.333 541.263 172.333 541.263L193.137 543.54C193.137 543.54 206.428 458.622 207.873 446.849C209.318 435.075 227.181 334.843 227.181 334.843L184.919 335.841Z" fill="#6E6B7B"/>
   <path opacity="0.283552" fill-rule="evenodd" clip-rule="evenodd" d="M190.538 384.962L189.269 389.556C185.553 403.112 182.124 417.448 183.022 437.928L183.065 438.863C183.287 443.299 180.464 469.045 174.599 516.101L174.041 519.408C173.466 522.781 172.954 525.66 172.505 528.043L172.632 523.875C173.38 500.872 175.392 459.574 177.546 451.962C180.359 442.02 178.382 435.933 178.291 422.073C178.227 412.372 181.5 373.999 183.47 351.848L184.919 335.841L193.701 335.634L193.722 338.1C193.877 360.855 192.815 376.476 190.538 384.962V384.962Z" fill="white" fill-opacity="0.192499"/>
   <path fill-rule="evenodd" clip-rule="evenodd" d="M287.272 246.344C287.272 246.344 285.535 236.771 286.16 234.833C286.693 233.158 291.735 230.742 291.735 230.742C291.735 230.742 300.503 217.042 302.422 218.437C303.983 219.568 297.856 229.668 297.856 229.668C297.856 229.668 303.443 235.466 303.365 238.057C303.287 240.649 294.246 248.763 294.246 248.763L287.272 246.344Z" fill="#F8CFCF"/>
   <path fill-rule="evenodd" clip-rule="evenodd" d="M291.923 230.604C291.923 230.604 295.807 230.082 296.425 231.277C296.952 232.296 293.725 235.184 293.725 235.996C293.725 236.808 293.771 242.954 294.031 243.01C294.291 243.066 297.921 232.981 297.147 230.848C296.509 229.096 291.923 230.604 291.923 230.604Z" fill="#F28585"/>
   <path fill-rule="evenodd" clip-rule="evenodd" d="M240.947 258.523C230.775 249.735 215.501 265.578 232.532 280.307C239.03 285.926 259.44 299.942 264.444 303.024C272.409 307.93 278.954 303.503 281.644 295.784C283.926 289.239 297.574 254.206 295.837 249.06C294.705 245.704 288.626 242.439 285.576 245.08C281.117 248.94 267.479 282.794 267.479 282.794C267.479 282.794 252.512 268.515 240.947 258.523Z" fill="#132453"/>
   <path fill-rule="evenodd" clip-rule="evenodd" d="M267.479 282.794C267.479 282.794 271.946 288.212 272.268 287.384C272.591 286.557 268.726 279.594 268.726 279.594L267.479 282.794Z" fill="black" fill-opacity="0.159856"/>
   <path d="M284.391 247.25C287.939 245.607 291.816 247.638 293.953 250.898" stroke="#2D56BF" stroke-linecap="round"/>
   <path fill-rule="evenodd" clip-rule="evenodd" d="M197.343 248.387C197.343 248.387 203.191 247.042 203.394 237.648C203.596 228.254 203.454 225.048 203.454 225.048L217.318 224.82C217.318 224.82 217.458 235.289 217.46 239.076C217.466 247.319 223.711 249.547 223.711 249.547C223.711 249.547 223.192 258.561 211.52 259.204C202.407 259.707 197.343 248.387 197.343 248.387Z" fill="#F8C5C5"/>
   <path fill-rule="evenodd" clip-rule="evenodd" d="M229.669 214.921L229.359 223.799C231.979 220.78 233.749 217.038 234.273 212.239L229.669 214.921Z" fill="url(#paint5_linear_154_22571)"/>
   <path fill-rule="evenodd" clip-rule="evenodd" d="M202.181 220.3C196.435 220.082 197.372 228.328 203.341 228.317C203.341 228.317 209.756 240.963 219.828 240.995C224.679 241.011 226.263 236.775 227.718 233.801C229.172 230.827 230.24 226.378 230.328 223.654C230.424 220.75 230.436 211.209 230.436 211.209L201.957 211.196L202.181 220.3Z" fill="#F8CFCF"/>
   <path fill-rule="evenodd" clip-rule="evenodd" d="M230.436 215.587H210.408C210.197 219.135 208.995 222.081 205.943 224.254C206.029 229.452 207.803 233.236 210.879 235.89C213.556 228.366 229.936 230.425 228.745 235.333C226.242 245.646 202.783 245.879 204.206 222.145C203.27 220.894 199.923 220.66 198.821 221.911C196.94 216.726 197.743 209.39 203.184 208.329C198.913 197.279 256.996 194.942 230.436 215.587Z" fill="#424242"/>
   <path d="M217.603 234.878C217.603 234.878 220.212 236.757 223.647 234.702" stroke="#CC6969" stroke-linecap="round"/>
   <path d="M203.077 225.007C203.136 223.685 202.724 222.634 201.348 222.423" stroke="#DE6767" stroke-linecap="round"/>
   <path fill-rule="evenodd" clip-rule="evenodd" d="M199.914 246.819L216.458 257.55L223.918 248.887C223.918 248.887 239.635 253.75 242.55 259.437C246.757 267.642 241.214 333.384 243.631 337.352C248.78 345.805 241.934 351.608 219.268 353.741C196.603 355.873 176.496 354.127 180.145 342.845C183.794 331.563 169.712 257.935 182.127 253.879C186.006 252.612 199.914 246.819 199.914 246.819Z" fill="#132453"/>
   <path fill-rule="evenodd" clip-rule="evenodd" d="M188.749 267.117C189.751 268.886 189.234 275.013 187.2 285.499C185.466 294.432 187.448 303.673 192.682 311.128L192.976 311.541C194.746 313.983 196.377 317.199 197.871 321.188C201.534 330.973 193.085 339.129 199.559 354.436L198.776 354.399C186.074 353.743 177.677 350.474 180.145 342.845C183.137 333.595 174.209 282.432 177.74 262.069C183.851 263.268 187.521 264.95 188.749 267.117Z" fill="black" fill-opacity="0.159856"/>
   <path fill-rule="evenodd" clip-rule="evenodd" d="M199.914 246.819L214.713 256.454C212.543 258.971 211.38 261.9 210.941 265.123C205.254 260.683 199.342 254.479 197.51 247.807L199.914 246.819Z" fill="#132453"/>
   <path fill-rule="evenodd" clip-rule="evenodd" d="M217.628 256.203C220.13 257.893 222.126 260.884 223.752 264.285C225.7 260.377 226.446 255.215 226.446 249.711L224.002 248.746L217.628 256.203Z" fill="#132453"/>
   <path fill-rule="evenodd" clip-rule="evenodd" d="M214.712 256.453L214.906 256.561C215.793 257.055 216.899 256.91 217.628 256.203V256.203C223.207 276.623 227.131 299.099 228.318 321.941L222.495 331.596L215.684 322.56C216.571 298.82 216.565 275.673 214.712 256.453Z" fill="white"/>
   <path d="M229.51 307.911C229.656 306.519 230.932 305.528 232.317 305.73L246.263 307.769C247.572 307.96 248.496 309.15 248.358 310.465L245.889 333.953C245.743 335.345 244.467 336.336 243.082 336.133L229.136 334.095C227.827 333.903 226.903 332.714 227.041 331.399L229.51 307.911Z" fill="#E6ECFF"/>
   <path fill-rule="evenodd" clip-rule="evenodd" d="M231.116 307.435C231.268 305.996 232.621 304.996 234.041 305.275L248.389 308.089L258.3 307.923C259.779 307.898 260.946 309.173 260.792 310.644L258.326 334.1C258.196 335.338 257.162 336.285 255.917 336.306L245.405 336.482L230.626 333.583C229.373 333.338 228.516 332.177 228.649 330.908L231.116 307.435Z" fill="#E6ECFF"/>
   <path d="M233.654 312.917C233.751 311.99 234.617 311.342 235.533 311.51L242.304 312.749C243.126 312.9 243.694 313.658 243.607 314.49L243.299 317.418C243.202 318.344 242.336 318.992 241.42 318.824L234.649 317.585C233.827 317.435 233.259 316.676 233.346 315.844L233.654 312.917Z" fill="#E6ECFF"/>
   <path d="M247.321 308.781C247.367 308.342 247.761 308.023 248.2 308.069L248.918 308.144C249.358 308.191 249.676 308.584 249.63 309.024L246.823 335.734C246.777 336.173 246.383 336.492 245.944 336.446L245.225 336.37C244.786 336.324 244.467 335.93 244.513 335.491L247.321 308.781Z" fill="white"/>
   <path d="M248.09 308.862C248.136 308.422 248.53 308.104 248.969 308.15L249.688 308.225C250.127 308.271 250.446 308.665 250.4 309.105L247.592 335.815C247.546 336.254 247.153 336.573 246.713 336.527L245.995 336.451C245.555 336.405 245.237 336.011 245.283 335.572L248.09 308.862Z" fill="#E6ECFF"/>
   <path fill-rule="evenodd" clip-rule="evenodd" d="M215.033 318.478C215.033 318.478 220.057 317.474 222.113 315.87C224.169 314.266 230.396 313.132 230.396 313.132L228.404 317.301C228.404 317.301 243.667 315.877 244.028 317.373C244.39 318.869 239.975 320.496 239.975 320.496C239.975 320.496 237.798 324.536 235.691 326.878C233.697 329.094 223.79 328.83 220.317 327.447C217.316 326.252 214.054 326.85 214.054 326.85L215.033 318.478Z" fill="#F8CFCF"/>
   <path fill-rule="evenodd" clip-rule="evenodd" d="M174.623 260.227C180.08 248.508 198.767 256.404 194.058 268.957C189.496 281.118 178.443 309.512 178.443 309.512C178.443 309.512 213.468 313.931 216.198 315.991C219.841 318.739 217.589 326.583 214.493 327.98C211.874 329.161 192.416 329.851 173.379 328.36C163.961 327.623 156.996 323.602 156.024 313.159C155.343 305.846 169.365 271.515 174.623 260.227Z" fill="#132453"/>
   <path fill-rule="evenodd" clip-rule="evenodd" d="M178.457 309.506C178.457 309.506 175.546 315.004 176.378 315.116C177.21 315.228 181.439 309.908 181.439 309.908L178.457 309.506Z" fill="black" fill-opacity="0.159856"/>
   <path d="M213.733 315.394C214.813 318.821 214.054 322.839 212.556 325.679" stroke="#2D56BF" stroke-linecap="round"/>
   <path fill-rule="evenodd" clip-rule="evenodd" d="M715.5 476.024L702.965 575.062L709.537 574.975L722.072 476.952L715.5 476.024Z" fill="#292929"/>
   <path fill-rule="evenodd" clip-rule="evenodd" d="M679.022 476.024L666.487 575.062L673.059 574.975L685.594 476.952L679.022 476.024Z" fill="#292929"/>
   <path fill-rule="evenodd" clip-rule="evenodd" d="M759.042 476.024L771.577 575.062L765.005 574.975L752.47 476.952L759.042 476.024Z" fill="#292929"/>
   <path fill-rule="evenodd" clip-rule="evenodd" d="M674.228 491.592C668.514 491.592 663.881 486.96 663.881 481.246V481.246C663.881 475.531 668.514 470.899 674.228 470.899H716.559C722.28 470.899 727.062 466.545 727.598 460.849L734.393 388.61C734.929 382.913 739.711 378.56 745.432 378.56H773.501C779.96 378.56 785.051 384.058 784.556 390.497L777.575 481.354C777.131 487.131 772.314 491.592 766.52 491.592H674.228Z" fill="#292929"/>
   <path fill-rule="evenodd" clip-rule="evenodd" d="M663.883 481.157C663.94 481.158 663.997 481.159 664.054 481.159H756.1C761.893 481.159 766.71 476.699 767.155 470.922L774.131 380.382C774.178 379.777 774.175 379.18 774.127 378.596C773.829 378.572 773.528 378.56 773.223 378.56H745.276C739.556 378.56 734.775 382.911 734.237 388.607L727.448 460.59C726.91 466.285 722.129 470.636 716.409 470.636H674.201C668.502 470.636 663.881 475.257 663.881 480.956C663.881 481.023 663.882 481.09 663.883 481.157Z" fill="#292929"/>
   <path fill-rule="evenodd" clip-rule="evenodd" d="M676.461 543.048C676.461 543.048 682.207 554.654 677.496 558.312C672.778 561.97 660.316 568.825 660.316 568.825L693.333 566.75L685.994 541.437L676.461 543.048Z" fill="url(#paint6_linear_154_22571)"/>
   <path fill-rule="evenodd" clip-rule="evenodd" d="M690.062 553.551C689.023 554.047 690.731 558.71 687.076 558.382C683.421 558.056 681.126 553.235 678.431 553.548C675.735 553.861 674.024 558.715 668.892 562.096C663.762 565.478 656.154 569.511 656.664 572.91C657.173 576.31 669.145 577.221 675.211 576.095C681.276 574.971 684.107 572.532 688.042 572.727C691.977 572.921 694.45 572.439 695.684 569.913C696.917 567.386 691.261 552.978 690.062 553.551Z" fill="#132453"/>
   <path fill-rule="evenodd" clip-rule="evenodd" d="M689.77 569.067L689.434 569.048C684.557 568.637 681.211 571.704 676.57 572.568C671.928 573.434 659.685 573.733 657.73 570.829C657.637 570.692 657.551 570.551 657.471 570.408C656.815 571.216 656.505 572.079 656.664 573.086C657.174 576.322 669.147 577.188 675.212 576.117C681.278 575.047 684.11 572.727 688.045 572.911L688.744 572.938C692.275 573.034 694.528 572.492 695.687 570.233C695.969 569.683 695.906 568.499 695.623 567.003C693.977 568.13 691.899 569.132 689.77 569.067V569.067Z" fill="#2D56BF"/>
   <path fill-rule="evenodd" clip-rule="evenodd" d="M726.197 440.75C716.202 441.197 660.569 453.501 650.461 455.592C640.353 457.682 631.808 468.994 639.516 482.093C648.172 496.797 670.508 538.555 675.931 547.968C678.616 552.627 692.157 550.015 688.976 542.195C683.047 527.617 680.293 490.995 665.175 477.642C665.175 477.642 716.015 486.49 737.976 476.355C753.937 468.988 750.326 439.671 726.197 440.75Z" fill="#2D56BF"/>
   <path fill-rule="evenodd" clip-rule="evenodd" d="M656.47 378.356C656.47 378.356 656.583 372.413 653.738 368.163C650.893 363.913 650.78 359.398 648.627 359.546C646.473 359.693 648.605 370.187 648.605 370.187C648.605 370.187 645.873 369.144 643.911 367.824C641.948 366.503 635.997 359.995 634.606 361.149C632.249 363.114 636.047 374.198 638.115 376.414C640.19 378.631 650.432 384.825 650.432 384.825L680.595 415.212L685.105 399.081L656.47 378.356Z" fill="url(#paint7_linear_154_22571)"/>
   <path fill-rule="evenodd" clip-rule="evenodd" d="M716.801 375.673C712.151 386.458 703.637 406.269 700.127 412.18C695.729 419.582 688.793 422.844 680.672 417.352C678.973 416.203 674.093 412.183 674.093 412.183C674.815 405.148 677.444 399.268 681.974 394.54L685.051 397.086C685.051 397.086 693.777 374.717 700.797 361.759C706.877 350.548 723.879 359.278 716.801 375.673Z" fill="#132453"/>
   <path fill-rule="evenodd" clip-rule="evenodd" d="M684.961 397.097C684.961 397.097 682.618 405.047 682.07 404.587C681.522 404.126 682.488 395.02 682.488 395.02L684.961 397.097Z" fill="black" fill-opacity="0.159856"/>
   <path fill-rule="evenodd" clip-rule="evenodd" d="M736.896 333.811V343.354L743.904 337.712C743.904 337.712 746.058 328.569 747.81 321.778C748.908 317.52 751.585 303.108 740.81 303.783C731.983 288.224 706.277 297.854 706.072 316.863C705.826 339.726 706.027 348.628 706.027 348.628C720.563 349.462 728.745 347.36 736.896 333.811Z" fill="#422851"/>
   <path fill-rule="evenodd" clip-rule="evenodd" d="M744.055 351.981C744.055 351.981 737.536 350.45 737.31 339.769C737.084 329.087 737.243 325.441 737.243 325.441L722.883 325.182C722.883 325.182 722.727 337.086 722.725 341.392C722.719 351.862 715.019 352.72 715.019 352.72C715.019 352.72 716.335 361.358 729.347 362.09C739.506 362.662 744.055 351.981 744.055 351.981Z" fill="url(#paint8_linear_154_22571)"/>
   <path fill-rule="evenodd" clip-rule="evenodd" d="M740.59 320.107C746.996 319.859 745.951 329.236 739.297 329.224C739.297 329.224 735.432 342.545 722.013 342.545C711.116 342.545 710.407 327.019 710.308 323.922C710.202 320.619 710.188 309.77 710.188 309.77L740.839 309.756L740.59 320.107Z" fill="url(#paint9_linear_154_22571)"/>
   <path fill-rule="evenodd" clip-rule="evenodd" d="M741.086 320.046C738.431 320.483 738.753 322.241 738.031 322.087C734.366 321.308 719.529 322.336 717.619 314.177C715.241 319.274 714.66 320.527 709.426 321.896V306.959L742.533 303.783C742.533 303.783 742.019 319.891 741.086 320.046Z" fill="#422851"/>
   <path d="M724.601 333.596C724.601 333.596 721.404 336.302 717.703 333.768" stroke="#F77B7B" stroke-width="1.5" stroke-linecap="round"/>
   <path d="M722.491 336.73C721.496 337.189 720.539 337.222 719.684 336.765" stroke="#F49494" stroke-linecap="round"/>
   <path d="M739.937 325.15C739.871 323.646 740.33 322.451 741.864 322.211" stroke="#F77B7B" stroke-linecap="round"/>
   <path fill-rule="evenodd" clip-rule="evenodd" d="M742.6 350.888C734.419 355.899 724.961 357.736 716.157 352.294C701.789 380.625 698.208 414.427 701.664 451.787C722.615 460.081 740.224 458.45 755.215 448.969L742.6 350.888Z" fill="#E6ECFF"/>
   <path fill-rule="evenodd" clip-rule="evenodd" d="M640.647 543.514C640.647 543.514 640.82 557.175 629.563 562.283C618.314 567.389 610.299 567.082 611.319 571.031C612.339 574.979 641.621 574.819 644.355 571.731C646.686 569.105 651.754 544.644 653.149 546.514L640.647 543.514Z" fill="url(#paint10_linear_154_22571)"/>
   <path fill-rule="evenodd" clip-rule="evenodd" d="M648.823 562.807C647.098 561.565 645.648 568.724 640.962 566.733C636.276 564.743 639.971 558.163 637.022 556.95C634.073 555.736 628.379 562.261 620.816 563.846C613.253 565.431 607.112 566.819 605.367 569.762C603.864 572.292 605.367 573.101 605.367 573.101C605.367 573.101 612.648 576.737 617.172 577.537C623.744 578.7 642.739 579.474 644.82 577.354C646.098 576.054 649.686 563.428 648.823 562.807Z" fill="#132453"/>
   <path fill-rule="evenodd" clip-rule="evenodd" d="M604.957 570.059C603.531 572.385 605.781 573.594 606.051 573.729L607.135 574.191C609.196 575.047 613.842 576.883 617.276 577.54C623.573 578.743 643.072 579.456 645.169 577.387C645.538 577.023 645.992 575.695 646.434 573.968L645.095 574.114C638.656 574.796 624.283 576.03 617.19 574.359C610.894 572.876 607.447 570.436 605.875 569.012C605.493 569.34 605.184 569.688 604.957 570.059Z" fill="#2D56BF"/>
   <path fill-rule="evenodd" clip-rule="evenodd" d="M757.518 436.527C757.518 436.527 772.049 467.217 751.627 477.755C731.878 487.946 672.754 475.893 672.754 475.893C672.754 475.893 673.81 484.399 672.754 491.985C669.994 511.799 656.871 544.809 654.095 548.957C650.255 554.693 638.559 550.367 638.339 545.591C638.118 540.815 647.156 479.816 648.53 468.184C649.897 456.551 654.214 454.861 666.821 451.681C669.718 450.951 703.969 442.439 707.107 442.687C734.067 444.819 757.518 436.527 757.518 436.527Z" fill="#2D56BF"/>
   <path fill-rule="evenodd" clip-rule="evenodd" d="M741.587 474.588C722.034 476.779 670.269 472.263 668.19 474.315C666.205 476.274 666.536 510.36 662.083 530.088L662.761 528.225C666.948 516.595 671.296 502.45 672.754 491.985C673.81 484.399 672.754 475.893 672.754 475.893L675.137 476.354C686.376 478.465 734.248 486.724 751.627 477.755C761.044 472.896 764.887 464.823 763.156 453.536C760.174 466.293 752.985 473.311 741.587 474.588Z" fill="white" fill-opacity="0.056108"/>
   <path fill-rule="evenodd" clip-rule="evenodd" d="M742.242 350.911C728.693 395.295 720.567 458.22 762.883 447.273C740.404 405.886 770.962 387.259 764.036 365.869C761.668 358.556 742.418 350.337 742.242 350.911Z" fill="#132453"/>
   <path fill-rule="evenodd" clip-rule="evenodd" d="M757.524 369.342C742.21 371.652 754.834 398.39 749.779 402.418C744.724 406.446 735.926 406.88 734.978 409.341C733.071 414.287 742.288 426.772 762.629 446.796L762.883 447.273C743.303 411.221 763.966 392.44 765.041 374.058C762.772 370.5 760.266 368.928 757.524 369.342Z" fill="black" fill-opacity="0.159856"/>
   <path fill-rule="evenodd" clip-rule="evenodd" d="M716.874 351.983C711.704 364.952 709.218 375.127 706.899 394.162C704.966 410.016 705.933 442.731 705.933 442.731L699.544 443.987C699.544 443.987 694.976 393.444 696.503 386.936C699.066 376.016 700.802 369.635 704.186 359.652C706.05 354.172 716.874 351.983 716.874 351.983Z" fill="#132453"/>
   <path fill-rule="evenodd" clip-rule="evenodd" d="M739.396 401.298C739.396 401.298 731.054 392.945 728.165 391.976C725.275 391.006 709.449 389.842 709.556 392.032C709.678 394.379 719.862 394.244 720.803 395.399C721.745 396.552 723.054 405.539 726.614 406.425C730.167 407.311 737.531 409.933 737.531 409.933L770.312 426.871L766.82 409.935L739.396 401.298Z" fill="url(#paint11_linear_154_22571)"/>
   <path fill-rule="evenodd" clip-rule="evenodd" d="M764.505 365.93C774.448 379.964 782.938 401.341 786.197 409.675C789.455 418.009 786.168 430.579 771.839 428.112C770.133 427.818 767.358 426.738 767.358 426.738C762.089 419.515 761.165 413.315 763.131 407.794C763.131 407.794 764.984 408.576 764.984 408.576C764.984 408.576 750.742 383.332 747.265 376.565C741.456 365.263 755.746 353.565 764.505 365.93Z" fill="#132453"/>
   <path fill-rule="evenodd" clip-rule="evenodd" d="M764.984 408.576C764.984 408.576 772.218 412.109 771.309 410.555C770.399 409.001 762.229 403.669 762.229 403.669L764.984 408.576Z" fill="black" fill-opacity="0.159856"/>
   <path fill-rule="evenodd" clip-rule="evenodd" d="M613.808 361.663C613.479 360.343 614.282 359.005 615.603 358.676L641.769 352.152C643.089 351.823 644.427 352.626 644.756 353.947L654.205 391.846C654.534 393.167 653.731 394.504 652.41 394.833L626.244 401.357C624.924 401.686 623.587 400.883 623.257 399.562L613.808 361.663Z" fill="#E6ECFF"/>
   <path fill-rule="evenodd" clip-rule="evenodd" d="M614.811 362.266C614.482 360.946 615.285 359.609 616.606 359.279L642.772 352.755C644.092 352.426 645.43 353.23 645.759 354.55L655.208 392.449C655.537 393.77 654.734 395.107 653.413 395.436L627.247 401.96C625.927 402.289 624.589 401.486 624.26 400.166L614.811 362.266Z" fill="#2D56BF"/>
   <path d="M615.913 362.619C615.617 361.43 616.34 360.227 617.528 359.93L642.118 353.799C643.306 353.503 644.51 354.226 644.806 355.415L653.349 389.678C653.645 390.867 652.922 392.07 651.734 392.366L627.144 398.497C625.956 398.794 624.752 398.07 624.456 396.882L615.913 362.619Z" fill="white"/>
   <path fill-rule="evenodd" clip-rule="evenodd" d="M391.746 416.475H404.252V575.184H391.746L391.746 416.475Z" fill="#E9E9E9"/>
   <path fill-rule="evenodd" clip-rule="evenodd" d="M269.241 421.692L368.039 421.692V451.169H285.704V575.184H269.241V421.692Z" fill="#D3D3D3"/>
   <path fill-rule="evenodd" clip-rule="evenodd" d="M268.603 421.692H277.366V575.184H268.603V421.692Z" fill="#DBDBDB"/>
   <path fill-rule="evenodd" clip-rule="evenodd" d="M698.721 421.692H716.249V575.184H698.721V421.692Z" fill="#E9E9E9"/>
   <path fill-rule="evenodd" clip-rule="evenodd" d="M698.721 416.475H709.676V575.184H698.721L698.721 416.475Z" fill="#DBDBDB"/>
   <path fill-rule="evenodd" clip-rule="evenodd" d="M553.657 421.692L705.926 421.692V450.783H574.151V575.184H553.657V421.692Z" fill="#D3D3D3"/>
   <path fill-rule="evenodd" clip-rule="evenodd" d="M281.527 416.475L554.175 416.475V460.545H281.527L281.527 416.475Z" fill="#DBDBDB"/>
   <path fill-rule="evenodd" clip-rule="evenodd" d="M547.922 421.692H560.429V460.545H547.922V421.692Z" fill="#E9E9E9"/>
   <path fill-rule="evenodd" clip-rule="evenodd" d="M553.696 421.692H563.555V575.184H553.696V421.692Z" fill="#DBDBDB"/>
   <path fill-rule="evenodd" clip-rule="evenodd" d="M555.267 424.3C555.267 419.978 558.771 416.475 563.092 416.475L722.072 416.475C726.393 416.475 729.897 419.978 729.897 424.3V424.3C729.897 428.622 726.393 432.125 722.072 432.125H563.092C558.771 432.125 555.267 428.622 555.267 424.3V424.3Z" fill="#E9E9E9"/>
   <path fill-rule="evenodd" clip-rule="evenodd" d="M278.4 419.605H551.048V435.255H278.4V419.605Z" fill="#E9E9E9"/>
   <path fill-rule="evenodd" clip-rule="evenodd" d="M255.471 424.3C255.471 419.978 258.975 416.475 263.297 416.475H566.152C570.474 416.475 573.977 419.978 573.977 424.3V424.3C573.977 428.622 570.474 432.125 566.152 432.125H263.297C258.975 432.125 255.471 428.622 255.471 424.3V424.3Z" fill="#DBDBDB"/>
   <path fill-rule="evenodd" clip-rule="evenodd" d="M304.31 536.218L295.659 564.309L313.807 564.968C313.807 564.968 311.758 555.359 314.684 546.351C317.03 539.119 318.946 535.511 318.946 535.511L304.31 536.218Z" fill="#E6ECFF"/>
   <path fill-rule="evenodd" clip-rule="evenodd" d="M313.332 557.248C313.332 557.248 320.259 563.667 326.92 566.046C333.581 568.424 336.131 568.451 336.606 569.345L336.693 569.516C338.063 572.345 337.232 576.102 322.048 576.31C318.357 576.36 314.52 574.217 304.334 571.948L303.598 575.914C297.898 575.838 294.571 574.94 293.619 573.218C292.185 570.642 294.623 557.941 296.305 557.7C297.987 557.46 298.32 562.625 302.836 562.738C307.36 562.852 313.332 557.248 313.332 557.248Z" fill="#4B4B4B"/>
   <path fill-rule="evenodd" clip-rule="evenodd" d="M311.584 558.722C312.677 560.019 317.964 566.109 321.487 566.913C323.924 567.47 325.566 566.614 326.466 565.878C319.949 563.379 313.333 557.248 313.333 557.248C313.333 557.248 312.655 557.883 311.584 558.722Z" fill="#4B4B4B"/>
   <path fill-rule="evenodd" clip-rule="evenodd" d="M262.949 448.288C262.949 448.288 335.023 454.051 344.953 454.359C354.884 454.666 362.471 468.84 354.781 481.923C346.144 496.61 322.678 538.892 318.091 548.668C314.21 556.933 296.576 553.546 299.749 540.921C303.538 525.81 310.599 491.91 325.682 478.572C325.682 478.572 288.998 491.872 268.336 478.973C256.548 471.615 262.949 448.288 262.949 448.288Z" fill="#132453"/>
   <path fill-rule="evenodd" clip-rule="evenodd" d="M354.781 481.923L353.658 483.85C349.286 491.404 342.228 504.168 335.49 516.598L335.844 515.459C341.056 498.875 349.153 479.34 352.614 473.379C353.828 471.289 355.48 469.16 357.571 466.99C358.457 471.541 357.783 476.815 354.781 481.923Z" fill="white" fill-opacity="0.192499"/>
   <path fill-rule="evenodd" clip-rule="evenodd" d="M382.744 536.546C382.744 536.546 387.562 557.971 393.834 560.264C396.248 561.147 375.33 563.667 375.33 563.667L370.078 543.112L382.744 536.546Z" fill="#E6ECFF"/>
   <path fill-rule="evenodd" clip-rule="evenodd" d="M372.308 556.43L371.958 574.517L379.168 574.571L379.242 570.505C379.242 570.505 384.862 573.875 388.667 575.06C393.786 576.659 414.006 575.821 416.291 573.386C418.576 570.94 418.625 567.048 413.934 566.57C409.244 566.091 401.489 564.667 398.149 562.112C394.111 559.032 392.574 554.147 391.401 554.142C389.605 554.136 389.466 559.884 380.352 559.965C376.884 559.996 372.308 556.43 372.308 556.43Z" fill="#4B4B4B"/>
   <path fill-rule="evenodd" clip-rule="evenodd" d="M389.535 555.755C389.535 555.755 394.185 563.011 396.95 564.062C399.714 565.102 401.943 563.935 401.943 563.935C401.943 563.935 397.176 562.035 395.334 558.72C391.163 551.211 390.329 555.031 389.535 555.755Z" fill="#2D56BF"/>
   <path fill-rule="evenodd" clip-rule="evenodd" d="M268.913 454.11C268.913 454.11 268.812 477.138 284.284 482.926C299.755 488.713 350.135 486.535 350.135 486.535C350.135 486.535 366.123 545.36 369.954 551.089C373.785 556.818 391.95 557.411 390.967 544.215C389.978 531.019 382.888 482.028 381.517 470.41C380.153 458.79 375.846 456.008 363.268 453.926C358.847 453.195 360.723 452.022 332.303 450.692C326.198 450.406 315.957 452.691 306.546 453.726C297.134 454.761 268.913 454.11 268.913 454.11Z" fill="#132453"/>
   <path fill-rule="evenodd" clip-rule="evenodd" d="M319.197 454.607L319.197 451.933L320.457 451.744C325.038 451.064 329.203 450.547 332.302 450.692L335.57 450.851C360.583 452.115 359.024 453.224 363.267 453.926L364.085 454.065C375.766 456.089 379.992 458.915 381.423 469.656L381.823 472.889C383.717 487.778 390.037 531.811 390.967 544.215C391.041 545.208 391.006 546.123 390.878 546.963L387.195 528.421C381.769 500.929 378.728 484.639 378.072 479.551L377.936 478.494C376.71 469.464 373.502 458.26 363.152 458.991L362.257 459.066C354.97 459.621 341.15 458.223 320.796 454.872L319.197 454.607Z" fill="white" fill-opacity="0.192499"/>
   <ellipse cx="392.968" cy="472.387" rx="4.13603" ry="7.24527" transform="rotate(13 392.968 472.387)" fill="white" fill-opacity="0.192499"/>
   <path fill-rule="evenodd" clip-rule="evenodd" d="M280.074 423.533C280.074 423.533 296.934 427.436 296.763 428.969C296.595 430.509 289.172 430.745 289.172 430.745C289.172 430.745 302.895 439.606 301.802 441.335C300.71 443.064 291.764 445.011 288.05 443.616C284.336 442.222 274.71 432.075 274.71 432.075L280.074 423.533Z" fill="url(#paint12_linear_154_22571)"/>
   <path fill-rule="evenodd" clip-rule="evenodd" d="M280.227 373.582C274.579 380.551 255.324 401.841 255.324 401.841C255.324 401.841 274.579 415.556 279.428 418.457C287.379 423.212 279.294 435.826 273.463 434.425C265.561 432.522 245.615 418.761 236.242 413.193C226.87 407.624 230.456 398.633 237.39 390.429C242.717 384.127 254.296 371.217 262.444 359.883C270.55 348.606 291.185 360.057 280.227 373.582Z" fill="#E6ECFF"/>
   <path fill-rule="evenodd" clip-rule="evenodd" d="M255.324 401.841C255.324 401.841 249.903 407.064 250.466 407.469C251.03 407.873 257.562 403.447 257.562 403.447L255.324 401.841Z" fill="black" fill-opacity="0.159856"/>
   <path fill-rule="evenodd" clip-rule="evenodd" d="M313.848 322.414C318.583 322.932 318.248 331.267 312.483 331.702C311.305 339.737 307.103 343.565 301.98 344.008L302.264 356.161L279.604 356.147C279.604 356.147 285.985 347.562 285.667 335.809C285.349 324.055 285.88 313.014 285.88 313.014L315.23 313.541L313.848 322.414Z" fill="url(#paint13_linear_154_22571)"/>
   <path fill-rule="evenodd" clip-rule="evenodd" d="M304.578 299.745C322.036 304.151 314.834 322.765 314.834 322.765C309.559 322.046 304.483 328.446 302.557 334.724C296.991 340.444 289.783 340.435 284.988 337.102C284.988 337.102 278.393 316.702 280.55 309.909C282.708 303.116 288.666 295.728 304.578 299.745Z" fill="#2C272E"/>
   <path fill-rule="evenodd" clip-rule="evenodd" d="M263.307 358.871C261.74 361.54 260.617 372.288 263.307 414.871C264.7 436.922 258.774 458.655 260.306 468.222C261.837 477.789 272.362 478.932 272.362 478.932L278.5 458.963L281.387 478.932C281.387 478.932 324.914 474.862 328.728 464.953C332.551 455.023 327.751 431.678 326.609 409.696C325.463 387.626 326.323 364.973 324.213 361.54C320.004 354.687 309.167 351.486 302.442 350.461C293.907 349.16 282.889 349.11 276.34 351.187C269.79 353.263 264.874 356.203 263.307 358.871Z" fill="#E6ECFF"/>
   <path fill-rule="evenodd" clip-rule="evenodd" d="M307.596 374.036C311.031 399.378 315.624 417.161 321.375 427.383C323.754 431.61 326.17 433.353 328.623 432.611L328.04 426.995C327.459 421.312 326.909 415.457 326.609 409.696C326.401 405.678 326.259 401.641 326.153 397.704L307.596 374.036Z" fill="black" fill-opacity="0.159856"/>
   <path fill-rule="evenodd" clip-rule="evenodd" d="M276.34 351.187C275.943 351.313 275.559 351.444 275.187 351.579C284.591 355.68 300.119 355.131 308.561 351.791C306.362 351.171 304.253 350.737 302.442 350.461C293.907 349.16 282.89 349.11 276.34 351.187Z" fill="#2D56BF"/>
   <path fill-rule="evenodd" clip-rule="evenodd" d="M391.691 395.986C391.691 395.986 405.696 386.636 408.171 384.758C410.638 382.888 413.735 368.709 411.816 366.72C410.888 365.757 403.882 372.234 402.632 373.101C401.391 373.961 395.037 377.788 395.037 377.788C395.037 377.788 396.835 366.934 395.287 366.059C394.142 365.423 391.853 368.216 391.546 371.168C391.24 374.12 388.055 377.971 387.644 382.451C387.458 384.408 385.531 388.148 385.531 388.148L391.691 395.986Z" fill="url(#paint14_linear_154_22571)"/>
   <path fill-rule="evenodd" clip-rule="evenodd" d="M308.282 378.056C313.649 389.208 322.764 405.51 327.77 415.07C333.694 426.382 340.753 431.174 354.991 422.781C366.914 415.751 384.109 404.445 392.993 398.3C401.26 392.582 391.488 378.466 383.678 383.236C373.316 389.554 346.82 402.077 346.82 402.077C346.82 402.077 333.185 377.17 327.523 365.211C320.321 350.012 297.897 356.476 308.282 378.056Z" fill="#E6ECFF"/>
   <path fill-rule="evenodd" clip-rule="evenodd" d="M346.821 402.077C346.821 402.077 349.314 410.858 349.902 410.511C350.491 410.164 349.489 400.818 349.489 400.818L346.821 402.077Z" fill="black" fill-opacity="0.159856"/>
   <path fill-rule="evenodd" clip-rule="evenodd" d="M291.581 488.062L279.046 576.749L285.618 576.662L298.153 488.989L291.581 488.062Z" fill="#292929"/>
   <path fill-rule="evenodd" clip-rule="evenodd" d="M333.387 488.062L345.922 576.749L339.35 576.662L326.814 488.989L333.387 488.062Z" fill="#292929"/>
   <path fill-rule="evenodd" clip-rule="evenodd" d="M253.366 488.062L240.831 576.749L247.403 576.662L259.938 488.989L253.366 488.062Z" fill="#292929"/>
   <path fill-rule="evenodd" clip-rule="evenodd" d="M338.181 493.279C343.895 493.279 348.527 488.646 348.527 482.932V482.932C348.527 477.217 343.895 472.585 338.181 472.585H295.85C290.128 472.585 285.346 468.232 284.811 462.535L278.016 390.296C277.48 384.599 272.698 380.246 266.977 380.246H238.908C232.449 380.246 227.357 385.744 227.852 392.184L234.833 483.04C235.277 488.817 240.095 493.279 245.889 493.279H338.181Z" fill="#292929"/>
   <path fill-rule="evenodd" clip-rule="evenodd" d="M348.525 482.843C348.468 482.844 348.411 482.845 348.354 482.845H290.429C284.636 482.845 279.819 478.385 279.374 472.609L272.358 381.553C275.54 383.256 277.811 386.472 278.171 390.293L284.961 462.276C285.498 467.971 290.28 472.322 296 472.322H338.207C343.907 472.322 348.527 476.943 348.527 482.642C348.527 482.71 348.527 482.777 348.525 482.843Z" fill="#292929"/>
   <path fill-rule="evenodd" clip-rule="evenodd" d="M583.207 414.948C583.207 414.536 582.873 414.201 582.461 414.201H490.15C489.738 414.201 489.404 414.536 489.404 414.948V416.292C489.404 416.704 489.738 417.038 490.15 417.038H582.461C582.873 417.038 583.207 416.704 583.207 416.292V414.948Z" fill="#2D56BF"/>
   <path fill-rule="evenodd" clip-rule="evenodd" d="M583.216 414.948C583.216 414.536 582.882 414.201 582.469 414.201H546.914C546.502 414.201 546.168 414.536 546.168 414.948V416.292C546.168 416.704 546.502 417.038 546.914 417.038H582.469C582.882 417.038 583.216 416.704 583.216 416.292V414.948Z" fill="#2D56BF"/>
   <path fill-rule="evenodd" clip-rule="evenodd" d="M589.952 374.988C590.227 372.836 588.551 370.93 586.381 370.93H524.549C522.737 370.93 521.208 372.276 520.978 374.073L516.343 410.268C516.067 412.42 517.744 414.325 519.914 414.325H581.746C583.557 414.325 585.086 412.979 585.316 411.182L589.952 374.988Z" fill="#2D56BF"/>
   <path fill-rule="evenodd" clip-rule="evenodd" d="M588.09 374.988C588.366 372.836 586.689 370.93 584.519 370.93H523.98C522.168 370.93 520.639 372.276 520.409 374.073L515.774 410.268C515.498 412.42 517.175 414.325 519.345 414.325H579.884C581.696 414.325 583.225 412.979 583.455 411.182L588.09 374.988Z" fill="#2D56BF"/>
   <path d="M585.95 376.634C586.198 374.697 584.689 372.983 582.737 372.983H525.414C523.783 372.983 522.407 374.195 522.2 375.812L518.024 408.459C517.776 410.396 519.285 412.11 521.237 412.11H578.56C580.191 412.11 581.567 410.898 581.774 409.281L585.95 376.634Z" fill="white"/>
   <path fill-rule="evenodd" clip-rule="evenodd" d="M436.046 425.621C436.046 425.621 450.945 429.096 450.794 430.46C450.646 431.832 444.086 432.042 444.086 432.042C444.086 432.042 456.213 439.932 455.247 441.472C454.282 443.011 446.376 444.745 443.095 443.503C439.813 442.262 431.306 433.227 431.306 433.227L407.439 420.409L415.417 409.888L436.046 425.621Z" fill="#132453"/>
   <path fill-rule="evenodd" clip-rule="evenodd" d="M436.181 381.141C431.19 387.348 414.174 406.305 414.174 406.305C414.174 406.305 417.533 408.825 417.533 408.825L406.608 422.076C406.608 422.076 399.632 417.802 397.312 416.413C389.029 411.454 392.198 403.448 398.326 396.143C403.033 390.531 413.266 379.035 420.466 368.943C427.629 358.902 445.865 369.098 436.181 381.141Z" fill="#E6ECFF"/>
   <path fill-rule="evenodd" clip-rule="evenodd" d="M414.174 406.304C414.174 406.304 409.383 410.956 409.881 411.316C410.379 411.676 416.152 407.735 416.152 407.735L414.174 406.304Z" fill="black" fill-opacity="0.159856"/>
   <path fill-rule="evenodd" clip-rule="evenodd" d="M416.856 407.439L402.618 421.535L409.737 426.194L419.518 409.45L416.856 407.439Z" fill="#2D56BF"/>
   <path fill-rule="evenodd" clip-rule="evenodd" d="M462.327 534.085L454.625 558.896L467.571 559.477C467.571 559.477 465.746 550.99 468.351 543.035C470.44 536.647 472.146 533.46 472.146 533.46L462.327 534.085Z" fill="url(#paint15_linear_154_22571)"/>
   <path fill-rule="evenodd" clip-rule="evenodd" d="M467.677 552.211C467.677 552.211 467.406 558.528 469.612 560.524C471.818 562.52 483.517 569.889 484.497 571.373C485.477 572.858 484.039 574.671 484.039 574.671C484.039 574.671 472.094 576.544 466.46 573.654C462.391 571.565 459.485 569.86 459.485 569.86L458.237 573.069L451.715 572.132C451.715 572.132 449.704 567.04 450.568 564.507C451.431 561.974 455.889 550.14 455.889 550.14C455.889 550.14 467.677 552.211 467.677 552.211Z" fill="#132453"/>
   <path fill-rule="evenodd" clip-rule="evenodd" d="M424.658 449.513C434.395 450.463 482.359 461.887 492.234 463.915C502.11 465.944 510.459 476.921 502.929 489.632C494.47 503.901 470.559 548.244 470.559 548.244C470.412 548.279 470.267 548.343 470.118 548.343C465.254 548.343 460.918 547.677 456.744 544.767C456.744 544.767 463.087 498.271 477.858 485.313C477.858 485.313 439.716 499.028 420.641 484.064C409.389 475.237 413.927 448.466 424.658 449.513Z" fill="#2D56BF"/>
   <path fill-rule="evenodd" clip-rule="evenodd" d="M424.658 449.513C434.395 450.463 482.359 461.887 492.234 463.915C502.11 465.944 510.459 476.921 502.929 489.632C494.47 503.901 472.647 544.424 467.348 553.559C464.726 558.08 451.495 555.545 454.603 547.956C460.396 533.809 463.087 498.271 477.858 485.313C477.858 485.313 439.716 499.028 420.641 484.064C409.389 475.237 413.927 448.466 424.658 449.513Z" fill="white" fill-opacity="0.14"/>
   <path fill-rule="evenodd" clip-rule="evenodd" d="M534.036 532.125C534.036 532.125 538.283 551.043 543.811 553.068C545.939 553.847 530.681 556.073 530.681 556.073L526.052 537.923L534.036 532.125Z" fill="url(#paint16_linear_154_22571)"/>
   <path fill-rule="evenodd" clip-rule="evenodd" d="M528.736 550.857L532.766 574.542L539.75 573.438L538.887 567.581C538.887 567.581 541.951 572.683 545.368 572.463C548.794 572.242 565.929 569.659 565.929 569.659C565.929 569.659 566.315 563.986 558.433 562.69C551.877 561.613 540.698 548.957 540.698 548.957L528.736 550.857Z" fill="#132453"/>
   <path fill-rule="evenodd" clip-rule="evenodd" d="M432.827 446.38C432.827 446.38 418.77 476.153 438.524 486.377C457.628 496.264 508.462 483.507 508.462 483.507C508.462 483.507 507.44 491.759 508.462 499.119C511.131 518.341 524.257 541.989 525.451 545.887C526.052 547.85 540.692 544.95 540.692 542.622C540.692 540.294 533.222 487.313 531.893 476.029C530.57 464.743 526.395 463.104 514.2 460.019C511.398 459.311 475.088 451.053 472.053 451.293C445.974 453.362 432.827 446.38 432.827 446.38Z" fill="#2D56BF"/>
   <path fill-rule="evenodd" clip-rule="evenodd" d="M472.053 451.293C475.088 451.053 511.398 459.31 514.2 460.019L516.202 460.533C526.604 463.254 530.459 465.285 531.798 475.274L532.159 478.141C533.257 486.51 536.223 506.19 538.57 522.573C535.922 516.552 533.73 509.87 531.995 502.528C527.951 485.418 528.816 471.369 527.73 468.908C526.644 466.448 473.527 458.593 464.4 456.972C460.428 456.267 458.187 454.517 457.677 451.722C462.088 451.847 466.88 451.703 472.053 451.293Z" fill="white" fill-opacity="0.192499"/>
   <path fill-rule="evenodd" clip-rule="evenodd" d="M465.14 332.131C469.36 332.593 469.06 340.021 463.924 340.408C462.874 347.569 459.13 350.98 454.565 351.375L454.818 362.205L434.626 362.193C434.626 362.193 440.312 354.542 440.029 344.068C439.745 333.594 440.219 323.754 440.219 323.754L466.372 324.224L465.14 332.131Z" fill="url(#paint17_linear_154_22571)"/>
   <path fill-rule="evenodd" clip-rule="evenodd" d="M466.059 332.687C461.144 330.741 457.513 339.12 453.753 344.943C449.993 350.766 440.25 349.776 438.907 344.943C433.823 334.356 429.442 319.962 435.375 318.781C436.21 303.48 476.21 307.092 466.059 332.687Z" fill="#9E5229"/>
   <path fill-rule="evenodd" clip-rule="evenodd" d="M438.615 312.742L447.314 312.742H447.425L447.5 312.825C455.207 321.438 456.923 334.132 453.302 345.573C453.046 345.898 452.77 346.197 452.477 346.472C456.491 334.938 454.939 321.96 447.202 313.242H438.027C438.215 313.069 438.411 312.902 438.615 312.742Z" fill="black" fill-opacity="0.199355"/>
   <ellipse rx="4.82089" ry="4.82676" transform="matrix(-1 0 0 1 443.959 312.992)" fill="#FB9934"/>
   <path fill-rule="evenodd" clip-rule="evenodd" d="M470.077 364.034C474.547 370.592 481.997 392.847 482.419 397.854C482.895 403.629 476.695 412.829 476.593 421.19C476.502 429.551 481.218 450.481 479.801 452.833C478.395 455.185 431.715 468.782 429.085 467.665C426.455 466.547 417.377 454.497 419.451 449.6C421.537 444.703 430.154 433.594 429.168 426.922C428.193 420.25 422.532 395.622 419.721 387.239C416.921 378.857 417.855 370.057 423.08 366.45C425.666 364.665 432.565 359.595 444.852 359.618C457.138 359.641 469.73 363.526 470.077 364.034Z" fill="#132453"/>
   <path fill-rule="evenodd" clip-rule="evenodd" d="M480.098 392.478L458.676 377.086L458.683 379.899C458.762 397.259 459.854 406.455 478.036 434.904L477.616 432.005C477.023 427.796 476.564 423.855 476.593 421.19C476.657 415.915 479.149 410.306 480.86 405.434L480.098 392.478Z" fill="black" fill-opacity="0.159856"/>
   <path fill-rule="evenodd" clip-rule="evenodd" d="M456.204 359.139C456.204 359.139 456.721 361.959 454.457 361.959C452.194 361.959 437.011 362.458 434.954 361.566C432.898 360.675 433.515 359.139 433.515 359.139H456.204Z" fill="#2D56BF"/>
   <path fill-rule="evenodd" clip-rule="evenodd" d="M531.877 397.84C531.877 397.84 544.241 389.588 546.426 387.931C548.604 386.281 551.338 373.767 549.644 372.011C548.825 371.161 542.64 376.878 541.536 377.643C540.44 378.402 534.831 381.779 534.831 381.779C534.831 381.779 536.419 372.201 535.052 371.428C534.041 370.867 532.02 373.331 531.749 375.937C531.479 378.542 528.667 381.941 528.304 385.895C528.141 387.622 527.501 389.86 527.501 389.86L493.196 404.593L496.785 420.612L531.877 397.84Z" fill="url(#paint18_linear_154_22571)"/>
   <path fill-rule="evenodd" clip-rule="evenodd" d="M458.243 382.016C462.981 391.858 471.027 406.246 475.447 414.682C480.676 424.665 486.908 428.895 499.478 421.487C500.949 420.62 504.131 418.688 504.131 418.688L496.349 401.41C496.349 401.41 492.265 403.215 492.265 403.215C492.265 403.215 480.227 381.234 475.229 370.68C468.871 357.266 449.074 362.97 458.243 382.016Z" fill="#E6ECFF"/>
   <path fill-rule="evenodd" clip-rule="evenodd" d="M492.264 403.215C492.264 403.215 494.466 410.965 494.985 410.659C495.504 410.353 494.62 402.104 494.62 402.104L492.264 403.215Z" fill="black" fill-opacity="0.159856"/>
   <path fill-rule="evenodd" clip-rule="evenodd" d="M496.239 400.647L501.659 422.156L509.723 417.796L499.141 398.972L496.239 400.647Z" fill="#2D56BF"/>
   <path fill-rule="evenodd" clip-rule="evenodd" d="M444.476 309.424C444.476 309.424 439.932 303.608 434.684 305.134C429.436 306.66 424.689 316.014 426.943 324.806C429.186 333.6 427.336 338.616 424.616 344.542C417.308 360.484 442.61 370.606 442.61 370.606C442.61 370.606 440.636 358.793 444.476 351.66C448.431 344.314 450.677 334.894 450.677 329.129C450.677 319.104 444.476 309.424 444.476 309.424Z" fill="#9E5229"/>
   <path fill-rule="evenodd" clip-rule="evenodd" d="M443.729 488.062L456.264 576.749L449.692 576.662L437.157 488.989L443.729 488.062Z" fill="#292929"/>
   <path fill-rule="evenodd" clip-rule="evenodd" d="M480.207 488.062L492.742 576.749L486.17 576.662L473.635 488.989L480.207 488.062Z" fill="#292929"/>
   <path fill-rule="evenodd" clip-rule="evenodd" d="M400.187 488.062L387.651 576.749L394.223 576.662L406.759 488.989L400.187 488.062Z" fill="#292929"/>
   <path fill-rule="evenodd" clip-rule="evenodd" d="M485.001 493.279C490.715 493.279 495.348 488.646 495.348 482.932V482.932C495.348 477.217 490.715 472.585 485.001 472.585H442.67C436.949 472.585 432.167 468.232 431.631 462.535L424.836 390.296C424.3 384.599 419.518 380.246 413.797 380.246H385.728C379.269 380.246 374.178 385.744 374.673 392.184L381.654 483.04C382.098 488.817 386.915 493.279 392.709 493.279H485.001Z" fill="#292929"/>
   <path fill-rule="evenodd" clip-rule="evenodd" d="M495.346 482.843C495.289 482.844 495.232 482.845 495.175 482.845H437.249C431.456 482.845 426.639 478.385 426.194 472.609L419.178 381.553C422.361 383.256 424.631 386.472 424.992 390.293L431.781 462.276C432.319 467.971 437.1 472.322 442.82 472.322H485.028C490.727 472.322 495.348 476.943 495.348 482.642C495.348 482.71 495.347 482.777 495.346 482.843Z" fill="#292929"/>
   <path fill-rule="evenodd" clip-rule="evenodd" d="M66.0894 476.396V476.396C74.3554 472.684 84.063 476.411 87.7223 484.7L90.5849 491.185V491.185C82.3189 494.897 72.6113 491.17 68.952 482.881L66.0894 476.396Z" fill="#02D3AF"/>
   <path fill-rule="evenodd" clip-rule="evenodd" d="M77.9003 480.352C86.1496 486.222 91.4989 492.764 93.964 499.976C96.4412 507.223 97.4561 519.371 96.9952 536.397C96.9881 536.661 97.1942 536.88 97.4556 536.887C97.717 536.894 97.9347 536.687 97.9418 536.423C98.4056 519.291 97.3826 507.046 94.8593 499.664C92.3239 492.247 86.8476 485.55 78.4462 479.571C78.2325 479.419 77.9371 479.471 77.7863 479.686C77.6356 479.902 77.6866 480.2 77.9003 480.352Z" fill="#02B596"/>
   <path fill-rule="evenodd" clip-rule="evenodd" d="M136.215 472.369V472.369C128.08 468.544 118.386 472.072 114.613 480.232L111.399 487.183V487.183C119.534 491.009 129.229 487.481 133.001 479.321L136.215 472.369Z" fill="#02D3AF"/>
   <path d="M71.2236 456.435V456.435C79.0676 454.768 86.7779 459.775 88.4452 467.619L89.7949 473.969V473.969C81.951 475.636 74.2407 470.629 72.5734 462.785L71.2236 456.435Z" fill="#02D3AF"/>
   <path fill-rule="evenodd" clip-rule="evenodd" d="M76.9924 461.501C83.0377 465.722 87.1274 470.273 89.2722 475.149L89.404 475.456L89.5368 475.779C91.735 481.235 95.3735 495.525 100.433 518.595C100.489 518.852 100.742 519.016 100.998 518.96C101.253 518.904 101.414 518.649 101.358 518.392L100.731 515.546L99.9986 512.252C95.4277 491.811 92.1465 479.331 90.138 474.765C87.9155 469.712 83.7092 465.031 77.5299 460.717C77.3146 460.567 77.0196 460.621 76.8712 460.837C76.7227 461.054 76.777 461.351 76.9924 461.501Z" fill="#02B596"/>
   <path fill-rule="evenodd" clip-rule="evenodd" d="M124.35 451.61V451.61C115.705 451.458 108.574 458.344 108.424 466.99L108.291 474.703V474.703C116.936 474.855 124.067 467.969 124.217 459.323L124.35 451.61Z" fill="#02D3AF"/>
   <path fill-rule="evenodd" clip-rule="evenodd" d="M118.676 454.712C113.115 462.873 109.052 470.749 106.488 478.343C103.929 485.924 101.376 497.631 98.8255 513.474C98.7836 513.734 98.9589 513.98 99.217 514.022C99.4751 514.064 99.7183 513.887 99.7602 513.627L100.074 511.701L100.289 510.403C102.655 496.236 105.022 485.65 107.385 478.651C109.919 471.145 113.942 463.345 119.457 455.253C119.605 455.035 119.55 454.738 119.335 454.589C119.119 454.439 118.824 454.494 118.676 454.712Z" fill="#02B596"/>
   <path fill-rule="evenodd" clip-rule="evenodd" d="M106.631 449.366C106.631 449.366 102.121 462.214 100.128 481.138C98.1341 500.063 99.2972 518.988 99.2972 518.988L101.498 519.188C101.498 519.188 100.316 497.1 101.736 481.222C103.155 465.344 107.731 449.466 107.731 449.466L106.631 449.366Z" fill="#02B596"/>
   <ellipse cx="108.927" cy="443.001" rx="7.26372" ry="11.1372" transform="rotate(14 108.927 443.001)" fill="#C2FFF4"/>
   <ellipse cx="109.073" cy="443.674" rx="5.05298" ry="7.26093" transform="rotate(14 109.073 443.674)" fill="#02D3AF"/>
   <path fill-rule="evenodd" clip-rule="evenodd" d="M108.451 450.055L112.509 437.391C112.75 436.638 112.341 435.831 111.594 435.587C110.848 435.344 110.047 435.757 109.806 436.51L105.748 449.174C105.507 449.927 105.916 450.735 106.663 450.978C107.409 451.221 108.21 450.808 108.451 450.055Z" fill="#0147FF"/>
   <path fill-rule="evenodd" clip-rule="evenodd" d="M84.6769 436.636C84.6769 436.636 90.5049 448.942 94.4656 467.554C98.4263 486.167 99.2477 505.11 99.2477 505.11L97.0801 505.539C97.0801 505.539 95.9466 483.448 92.8752 467.806C89.8037 452.163 83.5931 436.851 83.5931 436.851L84.6769 436.636Z" fill="#02B596"/>
   <ellipse rx="7.26372" ry="11.1372" transform="matrix(-0.939693 0.34202 0.34202 0.939693 81.7276 430.546)" fill="#C2FFF4"/>
   <ellipse rx="5.05298" ry="7.26093" transform="matrix(-0.939693 0.34202 0.34202 0.939693 81.6531 431.231)" fill="#02D3AF"/>
   <path fill-rule="evenodd" clip-rule="evenodd" d="M82.9381 437.512L77.5788 425.341C77.2602 424.618 77.5832 423.772 78.3001 423.452C79.0171 423.132 79.8565 423.459 80.1752 424.182L85.5344 436.353C85.8531 437.076 85.5301 437.922 84.8132 438.242C84.0962 438.562 83.2568 438.235 82.9381 437.512Z" fill="#0147FF"/>
   <path fill-rule="evenodd" clip-rule="evenodd" d="M131.745 474.398C120.518 478.792 112.689 483.869 108.263 489.649C103.836 495.428 100.912 504.391 99.4692 516.54C99.4381 516.802 99.6234 517.04 99.883 517.071C100.143 517.102 100.378 516.916 100.409 516.654C101.833 504.661 104.707 495.853 109.012 490.233C113.316 484.612 121.007 479.625 132.088 475.289C132.332 475.193 132.453 474.917 132.358 474.671C132.263 474.425 131.989 474.303 131.745 474.398Z" fill="#02B596"/>
   <path fill-rule="evenodd" clip-rule="evenodd" d="M101.655 509.645C96.3244 490.648 75.2725 496.207 75.2725 496.207C75.2725 496.207 91.034 501.358 99.0721 509.645H101.655Z" fill="#02B596"/>
   <path fill-rule="evenodd" clip-rule="evenodd" d="M101.601 506.727C106.932 487.73 124.7 490.507 124.7 490.507C124.7 490.507 113.908 499.378 104.184 506.727H101.601Z" fill="#02B596"/>
   <path fill-rule="evenodd" clip-rule="evenodd" d="M101.562 510.503C96.7958 493.649 107.913 479.142 107.913 479.142C107.913 479.142 107.349 499.102 103.486 509.272L101.562 510.503Z" fill="#02B596"/>
   <path fill-rule="evenodd" clip-rule="evenodd" d="M96.8991 506.727C94.7919 500.638 92.6958 492.132 91.1255 483.887C98.8882 487.009 101.382 499.448 98.8882 506.727H96.8991Z" fill="#02D3AF"/>
   <path fill-rule="evenodd" clip-rule="evenodd" d="M81.7482 502.812C81.6452 501.634 82.5738 500.621 83.7565 500.621H114.408C115.591 500.621 116.52 501.634 116.417 502.812L110.51 570.405C110.419 571.446 109.547 572.245 108.502 572.245H89.6634C88.618 572.245 87.746 571.446 87.655 570.405L81.7482 502.812Z" fill="#132453"/>
   <mask id="mask1_154_22571" style="mask-type:alpha" maskUnits="userSpaceOnUse" x="81" y="500" width="36" height="73">
      <path fill-rule="evenodd" clip-rule="evenodd" d="M81.7482 502.812C81.6452 501.634 82.5738 500.621 83.7565 500.621H114.408C115.591 500.621 116.52 501.634 116.417 502.812L110.51 570.405C110.419 571.446 109.547 572.245 108.502 572.245H89.6634C88.618 572.245 87.746 571.446 87.655 570.405L81.7482 502.812Z" fill="white"/>
   </mask>
   <g mask="url(#mask1_154_22571)">
      <path fill-rule="evenodd" clip-rule="evenodd" d="M77.1353 496.149H90.0796C82.0582 526.602 106.206 547.538 90.0796 577.991H77.1353V496.149Z" fill="#132453"/>
   </g>
   <defs>
      <filter id="filter0_dd_154_22571" x="69.8569" y="83.0081" width="191.801" height="107.427" filterUnits="userSpaceOnUse" color-interpolation-filters="sRGB">
         <feFlood flood-opacity="0" result="BackgroundImageFix"/>
         <feColorMatrix in="SourceAlpha" type="matrix" values="0 0 0 0 0 0 0 0 0 0 0 0 0 0 0 0 0 0 127 0" result="hardAlpha"/>
         <feOffset dx="8" dy="9"/>
         <feGaussianBlur stdDeviation="14"/>
         <feColorMatrix type="matrix" values="0 0 0 0 0.258824 0 0 0 0 0.403922 0 0 0 0 0.776471 0 0 0 0.2 0"/>
         <feBlend mode="normal" in2="BackgroundImageFix" result="effect1_dropShadow_154_22571"/>
         <feColorMatrix in="SourceAlpha" type="matrix" values="0 0 0 0 0 0 0 0 0 0 0 0 0 0 0 0 0 0 127 0" result="hardAlpha"/>
         <feOffset dy="2"/>
         <feGaussianBlur stdDeviation="7.5"/>
         <feColorMatrix type="matrix" values="0 0 0 0 0.258824 0 0 0 0 0.403922 0 0 0 0 0.776471 0 0 0 0.2 0"/>
         <feBlend mode="normal" in2="effect1_dropShadow_154_22571" result="effect2_dropShadow_154_22571"/>
         <feBlend mode="normal" in="SourceGraphic" in2="effect2_dropShadow_154_22571" result="shape"/>
      </filter>
      <filter id="filter1_dd_154_22571" x="69.8569" y="141.592" width="224.949" height="198.68" filterUnits="userSpaceOnUse" color-interpolation-filters="sRGB">
         <feFlood flood-opacity="0" result="BackgroundImageFix"/>
         <feColorMatrix in="SourceAlpha" type="matrix" values="0 0 0 0 0 0 0 0 0 0 0 0 0 0 0 0 0 0 127 0" result="hardAlpha"/>
         <feOffset dx="8" dy="9"/>
         <feGaussianBlur stdDeviation="14"/>
         <feColorMatrix type="matrix" values="0 0 0 0 0.258824 0 0 0 0 0.403922 0 0 0 0 0.776471 0 0 0 0.2 0"/>
         <feBlend mode="normal" in2="BackgroundImageFix" result="effect1_dropShadow_154_22571"/>
         <feColorMatrix in="SourceAlpha" type="matrix" values="0 0 0 0 0 0 0 0 0 0 0 0 0 0 0 0 0 0 127 0" result="hardAlpha"/>
         <feOffset dy="2"/>
         <feGaussianBlur stdDeviation="7.5"/>
         <feColorMatrix type="matrix" values="0 0 0 0 0.258824 0 0 0 0 0.403922 0 0 0 0 0.776471 0 0 0 0.2 0"/>
         <feBlend mode="normal" in2="effect1_dropShadow_154_22571" result="effect2_dropShadow_154_22571"/>
         <feBlend mode="normal" in="SourceGraphic" in2="effect2_dropShadow_154_22571" result="shape"/>
      </filter>
      <filter id="filter2_d_154_22571" x="95.5068" y="202.89" width="161.424" height="97.3127" filterUnits="userSpaceOnUse" color-interpolation-filters="sRGB">
         <feFlood flood-opacity="0" result="BackgroundImageFix"/>
         <feColorMatrix in="SourceAlpha" type="matrix" values="0 0 0 0 0 0 0 0 0 0 0 0 0 0 0 0 0 0 127 0" result="hardAlpha"/>
         <feOffset dy="13"/>
         <feGaussianBlur stdDeviation="7.5"/>
         <feColorMatrix type="matrix" values="0 0 0 0 0 0 0 0 0 0 0 0 0 0 0 0 0 0 0.144395 0"/>
         <feBlend mode="normal" in2="BackgroundImageFix" result="effect1_dropShadow_154_22571"/>
         <feBlend mode="normal" in="SourceGraphic" in2="effect1_dropShadow_154_22571" result="shape"/>
      </filter>
      <filter id="filter3_d_154_22571" x="275.234" y="105.237" width="272.181" height="197.485" filterUnits="userSpaceOnUse" color-interpolation-filters="sRGB">
         <feFlood flood-opacity="0" result="BackgroundImageFix"/>
         <feColorMatrix in="SourceAlpha" type="matrix" values="0 0 0 0 0 0 0 0 0 0 0 0 0 0 0 0 0 0 127 0" result="hardAlpha"/>
         <feOffset dx="6" dy="6"/>
         <feGaussianBlur stdDeviation="8"/>
         <feColorMatrix type="matrix" values="0 0 0 0 0.70188 0 0 0 0 0.70188 0 0 0 0 0.70188 0 0 0 0.208725 0"/>
         <feBlend mode="normal" in2="BackgroundImageFix" result="effect1_dropShadow_154_22571"/>
         <feBlend mode="normal" in="SourceGraphic" in2="effect1_dropShadow_154_22571" result="shape"/>
      </filter>
      <linearGradient id="paint0_linear_154_22571" x1="578.662" y1="324.53" x2="566.524" y2="378.73" gradientUnits="userSpaceOnUse">
         <stop stop-color="#FFAFAF"/>
         <stop offset="1" stop-color="#F07777"/>
      </linearGradient>
      <linearGradient id="paint1_linear_154_22571" x1="577.719" y1="314.239" x2="570.436" y2="349.863" gradientUnits="userSpaceOnUse">
         <stop stop-color="#FDC6C6"/>
         <stop offset="1" stop-color="#FAB2B2"/>
      </linearGradient>
      <linearGradient id="paint2_linear_154_22571" x1="526.221" y1="536.406" x2="524.476" y2="569.03" gradientUnits="userSpaceOnUse">
         <stop stop-color="#FDC6C6"/>
         <stop offset="1" stop-color="#FAB2B2"/>
      </linearGradient>
      <linearGradient id="paint3_linear_154_22571" x1="486.576" y1="356.272" x2="484.218" y2="387.605" gradientUnits="userSpaceOnUse">
         <stop stop-color="#FDC6C6"/>
         <stop offset="1" stop-color="#FAB2B2"/>
      </linearGradient>
      <linearGradient id="paint4_linear_154_22571" x1="573.075" y1="388.637" x2="572.384" y2="408.87" gradientUnits="userSpaceOnUse">
         <stop stop-color="#FDC6C6"/>
         <stop offset="1" stop-color="#FAB2B2"/>
      </linearGradient>
      <linearGradient id="paint5_linear_154_22571" x1="236.335" y1="204.391" x2="225.502" y2="205.404" gradientUnits="userSpaceOnUse">
         <stop stop-color="#4D63A0"/>
         <stop offset="1" stop-color="#222735"/>
      </linearGradient>
      <linearGradient id="paint6_linear_154_22571" x1="699.046" y1="534.77" x2="697.298" y2="567.469" gradientUnits="userSpaceOnUse">
         <stop stop-color="#FDC6C6"/>
         <stop offset="1" stop-color="#FAB2B2"/>
      </linearGradient>
      <linearGradient id="paint7_linear_154_22571" x1="693.973" y1="345.99" x2="689.328" y2="412.32" gradientUnits="userSpaceOnUse">
         <stop stop-color="#FDC6C6"/>
         <stop offset="1" stop-color="#FAB2B2"/>
      </linearGradient>
      <linearGradient id="paint8_linear_154_22571" x1="753.507" y1="319.698" x2="741.211" y2="373.963" gradientUnits="userSpaceOnUse">
         <stop stop-color="#FFAFAF"/>
         <stop offset="1" stop-color="#F07777"/>
      </linearGradient>
      <linearGradient id="paint9_linear_154_22571" x1="752.678" y1="309.384" x2="745.382" y2="345.092" gradientUnits="userSpaceOnUse">
         <stop stop-color="#FDC6C6"/>
         <stop offset="1" stop-color="#FAB2B2"/>
      </linearGradient>
      <linearGradient id="paint10_linear_154_22571" x1="660.403" y1="536.087" x2="658.693" y2="572.536" gradientUnits="userSpaceOnUse">
         <stop stop-color="#FDC6C6"/>
         <stop offset="1" stop-color="#FAB2B2"/>
      </linearGradient>
      <linearGradient id="paint11_linear_154_22571" x1="780.825" y1="382" x2="779.174" y2="425.144" gradientUnits="userSpaceOnUse">
         <stop stop-color="#FDC6C6"/>
         <stop offset="1" stop-color="#FAB2B2"/>
      </linearGradient>
      <linearGradient id="paint12_linear_154_22571" x1="290.685" y1="410.376" x2="303.557" y2="438.989" gradientUnits="userSpaceOnUse">
         <stop stop-color="#FDC6C6"/>
         <stop offset="1" stop-color="#A47070"/>
      </linearGradient>
      <linearGradient id="paint13_linear_154_22571" x1="323.622" y1="302.511" x2="319.814" y2="353.889" gradientUnits="userSpaceOnUse">
         <stop stop-color="#FDC6C6"/>
         <stop offset="1" stop-color="#A47070"/>
      </linearGradient>
      <linearGradient id="paint14_linear_154_22571" x1="417.066" y1="358.661" x2="414.492" y2="394.416" gradientUnits="userSpaceOnUse">
         <stop stop-color="#FDC6C6"/>
         <stop offset="1" stop-color="#A47070"/>
      </linearGradient>
      <linearGradient id="paint15_linear_154_22571" x1="475.177" y1="527.127" x2="472.223" y2="557.995" gradientUnits="userSpaceOnUse">
         <stop stop-color="#FDC6C6"/>
         <stop offset="1" stop-color="#FAB2B2"/>
      </linearGradient>
      <linearGradient id="paint16_linear_154_22571" x1="547.122" y1="526.296" x2="544.676" y2="554.758" gradientUnits="userSpaceOnUse">
         <stop stop-color="#FDC6C6"/>
         <stop offset="1" stop-color="#FAB2B2"/>
      </linearGradient>
      <linearGradient id="paint17_linear_154_22571" x1="473.849" y1="314.394" x2="470.456" y2="360.18" gradientUnits="userSpaceOnUse">
         <stop stop-color="#FDC6C6"/>
         <stop offset="1" stop-color="#FFCCA1"/>
      </linearGradient>
      <linearGradient id="paint18_linear_154_22571" x1="560.031" y1="359.355" x2="556.754" y2="418.157" gradientUnits="userSpaceOnUse">
         <stop stop-color="#FDC6C6"/>
         <stop offset="1" stop-color="#FFCCA1"/>
      </linearGradient>
   </defs>
</svg>